<svg xmlns="http://www.w3.org/2000/svg" width="20" height="22.857" viewBox="0 0 20 22.857"><path d="M18.571,2.143A2.143,2.143,0,0,0,16.429,0H2.143A2.143,2.143,0,0,0,0,2.143V20.714a2.143,2.143,0,0,0,2.143,2.143H16.429a2.143,2.143,0,0,0,2.143-2.143ZM9.286,5.714A2.857,2.857,0,1,1,6.429,8.571,2.857,2.857,0,0,1,9.286,5.714Zm5,10.571a.936.936,0,0,1-1,.857h-8a.936.936,0,0,1-1-.857v-.857a2.811,2.811,0,0,1,3-2.571h.223a4.6,4.6,0,0,0,3.554,0h.223a2.811,2.811,0,0,1,3,2.571Z" fill="#2b54a3" opacity="0.4"/><path d="M103,104.571h-.223a4.6,4.6,0,0,1-3.554,0H99a2.811,2.811,0,0,0-3,2.571V108a.936.936,0,0,0,1,.857h8a.936.936,0,0,0,1-.857v-.857A2.811,2.811,0,0,0,103,104.571Zm-2-1.429a2.857,2.857,0,1,0-2.857-2.857A2.857,2.857,0,0,0,101,103.143Zm10.179-1.429h-.893v2.857h.893a.536.536,0,0,0,.536-.536V102.25A.536.536,0,0,0,111.179,101.714Zm0,5.714h-.893v2.857h.893a.536.536,0,0,0,.536-.536v-1.786A.536.536,0,0,0,111.179,107.429Zm0-11.429h-.893v2.857h.893a.536.536,0,0,0,.536-.536V96.536A.536.536,0,0,0,111.179,96Z" transform="translate(-91.714 -91.714)" fill="#2b54a3"/></svg>