<svg xmlns="http://www.w3.org/2000/svg" xmlns:xlink="http://www.w3.org/1999/xlink" width="17" height="12.748" viewBox="0 0 17 12.748"><defs><linearGradient id="a" x1="0.5" x2="0.5" y2="1" gradientUnits="objectBoundingBox"><stop offset="0" stop-color="#2b54a3"/><stop offset="1" stop-color="#4b7cd9"/></linearGradient></defs><g transform="translate(0.002 -64.048)"><path d="M202.376,66.717l-7.96,8L192,72.3l7.972-8a.846.846,0,0,1,1.2,0l0,0,1.2,1.209A.859.859,0,0,1,202.376,66.717Z" transform="translate(-185.627)" fill="url(#a)"/><path d="M8.786,199.156l-1.812,1.822a.847.847,0,0,1-1.2,0l0,0L.247,195.421a.858.858,0,0,1,0-1.209L1.449,193a.846.846,0,0,1,1.2-.006L2.65,193Z" transform="translate(0 -124.431)" fill="url(#a)"/></g></svg>