<svg xmlns="http://www.w3.org/2000/svg" width="61.862" height="43.299" viewBox="0 0 61.862 43.299"><g transform="translate(0.199 -31.949)"><path d="M51.773,50.76A9.276,9.276,0,0,0,37.963,39.7,15.462,15.462,0,0,0,9.1,47.416c0,.261.01.522.019.783a13.916,13.916,0,0,0,4.619,27.049H49.3A12.37,12.37,0,0,0,51.773,50.76ZM37.838,56.694h-6.32V67.517a1.546,1.546,0,0,1-1.546,1.546H25.333a1.546,1.546,0,0,1-1.546-1.546V56.694h-6.32a1.546,1.546,0,0,1-1.092-2.638L26.56,43.87a1.552,1.552,0,0,1,2.184,0L38.93,54.056A1.545,1.545,0,0,1,37.838,56.694Z" transform="translate(0 0)" fill="#2b54a3" opacity="0.17"/><path d="M188.542,163.925h-6.32v10.823a1.546,1.546,0,0,1-1.546,1.546h-4.639a1.546,1.546,0,0,1-1.546-1.546V163.925h-6.32a1.546,1.546,0,0,1-1.092-2.638L177.264,151.1a1.552,1.552,0,0,1,2.184,0l10.186,10.186A1.545,1.545,0,0,1,188.542,163.925Z" transform="translate(-150.704 -107.231)" fill="#2b54a3"/></g></svg>