<svg xmlns="http://www.w3.org/2000/svg" width="76" height="76.004" viewBox="0 0 76 76.004"><g transform="translate(-162 135)"><path d="M66.5,0H9.5A9.509,9.509,0,0,0,0,9.5V52.25a9.509,9.509,0,0,0,9.5,9.5H23.75V74.219a1.781,1.781,0,0,0,2.835,1.44L45.125,61.75H66.5a9.509,9.509,0,0,0,9.5-9.5V9.5A9.509,9.509,0,0,0,66.5,0Zm-19,19.772a3.978,3.978,0,1,1-3.978,3.978A3.978,3.978,0,0,1,47.5,19.772Zm-19,0a3.978,3.978,0,1,1-3.978,3.978A3.978,3.978,0,0,1,28.5,19.772ZM52.873,40.687a19.641,19.641,0,0,1-29.747,0,2.375,2.375,0,0,1,3.607-3.073,14.878,14.878,0,0,0,22.5-.015,2.385,2.385,0,1,1,3.637,3.088Z" transform="translate(162 -135)" fill="#2b54a3" opacity="0.4"/><path d="M177.513,141.156a3.978,3.978,0,1,0-3.978-3.978A3.978,3.978,0,0,0,177.513,141.156Zm-19,0a3.978,3.978,0,1,0-3.978-3.978A3.978,3.978,0,0,0,158.513,141.156Zm24.091,9.6a2.391,2.391,0,0,0-3.355.267,14.878,14.878,0,0,1-22.5.015,2.375,2.375,0,0,0-3.607,3.073,19.641,19.641,0,0,0,29.747,0,2.375,2.375,0,0,0-.282-3.355Z" transform="translate(31.987 -248.428)" fill="#2b54a3"/></g></svg>