<svg xmlns="http://www.w3.org/2000/svg" width="76" height="76" viewBox="0 0 76 76"><g transform="translate(0 0.002)" opacity="0.86"><path d="M64,92.242l24.468,17.272a7.259,7.259,0,0,0,8.39,0l24.468-17.272V68.668A4.724,4.724,0,0,0,116.55,64H68.777A4.724,4.724,0,0,0,64,68.668ZM78.332,78A2.362,2.362,0,0,1,80.72,75.67h23.886A2.362,2.362,0,0,1,107,78v2.334a2.362,2.362,0,0,1-2.389,2.334H80.72a2.362,2.362,0,0,1-2.389-2.334Zm0,11.67a2.362,2.362,0,0,1,2.389-2.334h23.886A2.362,2.362,0,0,1,107,89.675v2.334a2.362,2.362,0,0,1-2.389,2.334H80.72a2.362,2.362,0,0,1-2.389-2.334Z" transform="translate(-54.664 -54.666)" fill="#2b54a3" opacity="0.4"/><path d="M52.25,23.748a2.375,2.375,0,0,0-2.375-2.375H26.125a2.375,2.375,0,0,0-2.375,2.375v2.375A2.375,2.375,0,0,0,26.125,28.5h23.75a2.375,2.375,0,0,0,2.375-2.375Zm-2.375,9.5H26.125a2.375,2.375,0,0,0-2.375,2.375V38a2.375,2.375,0,0,0,2.375,2.375h23.75A2.375,2.375,0,0,0,52.25,38V35.623A2.375,2.375,0,0,0,49.875,33.248Zm-.98-27.1C46.4,4.332,41.444-.046,38,0c-3.444-.045-8.4,4.334-10.9,6.145L22.562,9.5H53.437Zm-39.4,13c-3.548,2.627-6.338,4.691-6.769,5.047A7.125,7.125,0,0,0,0,29.789v1.588l9.5,6.858Zm63.768,5.047c-.43-.341-3.221-2.42-6.769-5.032V38.235L76,31.378V29.789a7.125,7.125,0,0,0-2.731-5.6ZM38,61.911a11.873,11.873,0,0,1-6.96-2.255L0,37.241V68.873A7.125,7.125,0,0,0,7.125,76h61.75A7.125,7.125,0,0,0,76,68.873V37.241L44.962,59.655A11.875,11.875,0,0,1,38,61.911Z" fill="#2b54a3"/></g></svg>