<svg xmlns="http://www.w3.org/2000/svg" width="64" height="64" viewBox="0 0 64 64"><g transform="translate(-8 -8)" opacity="0.55"><path d="M40,8A32,32,0,1,0,72,40,32,32,0,0,0,40,8Zm0,48.516a4.129,4.129,0,1,1,4.129-4.129A4.129,4.129,0,0,1,40,56.516Zm4.934-30.763L43.283,42.27a2.065,2.065,0,0,1-2.054,1.859H38.777a2.064,2.064,0,0,1-2.054-1.859L35.071,25.754a2.065,2.065,0,0,1,2.049-2.27h5.76a2.065,2.065,0,0,1,2.054,2.27Z" fill="#2b54a3" opacity="0.4"/><path d="M225.505,128h-5.76a2.065,2.065,0,0,0-2.054,2.27l1.652,16.516a2.065,2.065,0,0,0,2.054,1.859h2.452a2.064,2.064,0,0,0,2.054-1.859l1.652-16.516a2.065,2.065,0,0,0-2.049-2.27Zm-2.88,24.774a4.129,4.129,0,1,0,4.129,4.129A4.129,4.129,0,0,0,222.625,152.774Z" transform="translate(-182.625 -104.516)" fill="#2b54a3"/></g></svg>