<svg xmlns="http://www.w3.org/2000/svg" width="64" height="56.888" viewBox="0 0 64 56.888"><g transform="translate(-0.003)"><path d="M63.282,48.888,36.623,2.667a5.335,5.335,0,0,0-9.24,0L.723,48.888a5.337,5.337,0,0,0,4.619,8h53.32A5.337,5.337,0,0,0,63.282,48.888ZM32,49.777a3.556,3.556,0,1,1,3.556-3.556A3.556,3.556,0,0,1,32,49.777Zm4.249-26.49L34.829,37.509a1.778,1.778,0,0,1-1.769,1.6H30.949a1.778,1.778,0,0,1-1.769-1.6L27.758,23.287a1.778,1.778,0,0,1,1.764-1.954h4.96a1.778,1.778,0,0,1,1.769,1.954Z" transform="translate(0)" fill="#2b54a3" opacity="0.4"/><path d="M256.418,192h-4.96a1.778,1.778,0,0,0-1.769,1.954l1.422,14.222a1.778,1.778,0,0,0,1.769,1.6h2.111a1.778,1.778,0,0,0,1.769-1.6l1.422-14.222A1.778,1.778,0,0,0,256.418,192Zm-2.48,21.333a3.556,3.556,0,1,0,3.556,3.556A3.555,3.555,0,0,0,253.938,213.333Z" transform="translate(-221.936 -170.667)" fill="#2b54a3"/></g></svg>