<svg xmlns="http://www.w3.org/2000/svg" width="92.003" height="73.602" viewBox="0 0 92.003 73.602"><g transform="translate(-0.001)"><path d="M343,192a23,23,0,1,0,23,23A23,23,0,0,0,343,192Zm2.3,34.484V228.8a1.15,1.15,0,0,1-1.15,1.15h-2.3a1.15,1.15,0,0,1-1.15-1.15v-2.342a8.231,8.231,0,0,1-4.51-1.632,1.15,1.15,0,0,1-.082-1.745l1.689-1.613a1.18,1.18,0,0,1,1.456-.1,3.462,3.462,0,0,0,1.843.536h4.041a1.808,1.808,0,0,0,1.7-1.9,1.876,1.876,0,0,0-1.261-1.83l-6.469-1.941a6.506,6.506,0,0,1-4.54-6.238,6.4,6.4,0,0,1,6.134-6.479V201.2a1.15,1.15,0,0,1,1.15-1.15h2.3a1.15,1.15,0,0,1,1.15,1.15v2.342a8.22,8.22,0,0,1,4.51,1.632,1.15,1.15,0,0,1,.082,1.745l-1.689,1.613a1.18,1.18,0,0,1-1.456.1,3.45,3.45,0,0,0-1.843-.536h-4.041a1.808,1.808,0,0,0-1.7,1.9,1.876,1.876,0,0,0,1.261,1.83l6.469,1.941a6.506,6.506,0,0,1,4.54,6.238A6.4,6.4,0,0,1,345.3,226.484Z" transform="translate(-273.997 -164.399)" fill="#2b54a3" opacity="0.4"/><path d="M72.9,49.368l-6.469-1.941a1.877,1.877,0,0,1-1.261-1.83,1.808,1.808,0,0,1,1.7-1.9h4.041a3.45,3.45,0,0,1,1.843.535,1.18,1.18,0,0,0,1.456-.1l1.689-1.611a1.15,1.15,0,0,0-.082-1.745A8.22,8.22,0,0,0,71.3,39.143V36.8a1.15,1.15,0,0,0-1.15-1.15h-2.3A1.15,1.15,0,0,0,66.7,36.8v2.317A6.4,6.4,0,0,0,60.569,45.6a6.5,6.5,0,0,0,4.54,6.237l6.469,1.941a1.877,1.877,0,0,1,1.261,1.83,1.808,1.808,0,0,1-1.7,1.9H67.1a3.462,3.462,0,0,1-1.843-.535,1.18,1.18,0,0,0-1.456.1l-1.689,1.611a1.15,1.15,0,0,0,.082,1.745A8.231,8.231,0,0,0,66.7,62.06V64.4a1.15,1.15,0,0,0,1.15,1.15h2.3A1.15,1.15,0,0,0,71.3,64.4V62.085a6.4,6.4,0,0,0,6.134-6.479,6.506,6.506,0,0,0-4.54-6.238ZM41.4,50.6A27.627,27.627,0,0,1,62.313,23.855L76.861,7.773A4.551,4.551,0,0,0,73.641,0H4.564a4.553,4.553,0,0,0-3.22,7.773L27.6,36.8V59.215a5.75,5.75,0,0,0,2.3,4.6l11.5,8.625a5.721,5.721,0,0,0,8.513-1.951A27.5,27.5,0,0,1,41.4,50.6Z" fill="#2b54a3"/></g></svg>