<svg xmlns="http://www.w3.org/2000/svg" width="14.5" height="19.333" viewBox="0 0 14.5 19.333"><path d="M95.435,137.667H88.417A7.087,7.087,0,0,0,88,140.083h7.854A7.083,7.083,0,0,0,95.435,137.667Zm-3.509-6.646c1.542,0,2.864-1.254,3.509-3.021H88.418C89.062,129.767,90.385,131.021,91.926,131.021Z" transform="translate(-84.676 -123.167)" fill="#2b54a3" opacity="0.4"/><path d="M13.594,2.417A.906.906,0,0,0,14.5,1.51v-.6A.906.906,0,0,0,13.594,0H.906A.906.906,0,0,0,0,.906v.6a.906.906,0,0,0,.906.906c0,3.436,1.926,6.334,4.563,7.25C2.832,10.583.906,13.48.906,16.917A.906.906,0,0,0,0,17.823v.6a.906.906,0,0,0,.906.906H13.594a.906.906,0,0,0,.906-.906v-.6a.906.906,0,0,0-.906-.906c0-3.436-1.926-6.334-4.563-7.25C11.668,8.75,13.594,5.853,13.594,2.417Zm-2.417,14.5H3.323c0-2.925,1.745-5.437,3.927-5.437S11.177,13.991,11.177,16.917ZM7.25,7.854c-2.182,0-3.927-2.512-3.927-5.437h7.854C11.177,5.342,9.433,7.854,7.25,7.854Z" transform="translate(0)" fill="#2b54a3"/></svg>