<svg xmlns="http://www.w3.org/2000/svg" width="20" height="15.556" viewBox="0 0 20 15.556"><g transform="translate(0 -32)"><path d="M0,128v10.556a1.667,1.667,0,0,0,1.667,1.667H18.333A1.667,1.667,0,0,0,20,138.556V128Zm6.111,2.222a2.222,2.222,0,1,1-2.222,2.222,2.222,2.222,0,0,1,2.222-2.222ZM9.351,138H2.872a.548.548,0,0,1-.542-.687,2.225,2.225,0,0,1,2.115-1.535h.285a3.576,3.576,0,0,0,2.764,0h.285a2.225,2.225,0,0,1,2.115,1.535A.547.547,0,0,1,9.351,138Zm8.427-2.5a.278.278,0,0,1-.278.278h-5a.278.278,0,0,1-.278-.278v-.556a.278.278,0,0,1,.278-.278h5a.278.278,0,0,1,.278.278Zm0-2.222a.278.278,0,0,1-.278.278h-5a.278.278,0,0,1-.278-.278v-.556a.278.278,0,0,1,.278-.278h5a.278.278,0,0,1,.278.278Zm0-2.222a.278.278,0,0,1-.278.278h-5a.278.278,0,0,1-.278-.278V130.5a.278.278,0,0,1,.278-.278h5a.278.278,0,0,1,.278.278Z" transform="translate(0 -92.667)" fill="#2b54a3" opacity="0.4"/><path d="M7.778,43.111H7.493a3.576,3.576,0,0,1-2.764,0H4.444A2.225,2.225,0,0,0,2.33,44.646a.548.548,0,0,0,.542.688H9.351a.547.547,0,0,0,.542-.687A2.225,2.225,0,0,0,7.778,43.111ZM18.333,32H1.667A1.667,1.667,0,0,0,0,33.667v1.667H20V33.667A1.667,1.667,0,0,0,18.333,32ZM6.111,42a2.222,2.222,0,1,0-2.222-2.222A2.222,2.222,0,0,0,6.111,42Z" fill="#2b54a3"/></g></svg>