<svg xmlns="http://www.w3.org/2000/svg" width="19.004" height="19" viewBox="0 0 19.004 19"><path d="M9.429,36.454A4.871,4.871,0,1,0,14.3,41.325,4.864,4.864,0,0,0,9.429,36.454Zm0,8.038A3.167,3.167,0,1,1,12.6,41.325a3.173,3.173,0,0,1-3.167,3.167Zm6.207-8.238A1.136,1.136,0,1,1,14.5,35.118,1.134,1.134,0,0,1,15.636,36.254Zm3.226,1.153a5.623,5.623,0,0,0-1.535-3.981,5.66,5.66,0,0,0-3.981-1.535c-1.569-.089-6.27-.089-7.839,0a5.652,5.652,0,0,0-3.981,1.531A5.641,5.641,0,0,0-.008,37.4c-.089,1.569-.089,6.27,0,7.839a5.623,5.623,0,0,0,1.535,3.981,5.667,5.667,0,0,0,3.981,1.535c1.569.089,6.27.089,7.839,0a5.623,5.623,0,0,0,3.981-1.535,5.66,5.66,0,0,0,1.535-3.981C18.952,43.674,18.952,38.976,18.862,37.408Zm-2.027,9.518a3.206,3.206,0,0,1-1.806,1.806c-1.251.5-4.218.382-5.6.382s-4.354.11-5.6-.382a3.206,3.206,0,0,1-1.806-1.806c-.5-1.251-.382-4.218-.382-5.6s-.11-4.354.382-5.6a3.206,3.206,0,0,1,1.806-1.806c1.251-.5,4.218-.382,5.6-.382s4.354-.11,5.6.382a3.206,3.206,0,0,1,1.806,1.806c.5,1.251.382,4.218.382,5.6S17.332,45.679,16.836,46.926Z" transform="translate(0.075 -31.825)" fill="#fff"/></svg>