<svg xmlns="http://www.w3.org/2000/svg" width="32" height="32" viewBox="0 0 32 32"><g transform="translate(-1281 -1602)"><g transform="translate(-2 1237)"><g transform="translate(1283 365)" fill="#fff" stroke="#e1dfdf" stroke-width="1"><circle cx="16" cy="16" r="16" stroke="none"/><circle cx="16" cy="16" r="15.5" fill="none"/></g></g><path d="M14.61,4.236,13.259,5.587a.352.352,0,0,1-.5,0L9.509,2.335a.352.352,0,0,1,0-.5L10.86.486a1.409,1.409,0,0,1,1.989,0L14.61,2.247A1.4,1.4,0,0,1,14.61,4.236ZM8.349,3,.656,10.69.035,14.25a.7.7,0,0,0,.814.814l3.56-.624L12.1,6.747a.352.352,0,0,0,0-.5L8.85,3a.355.355,0,0,0-.5,0Zm-4.69,7.034a.408.408,0,0,1,0-.58L8.171,4.939a.41.41,0,0,1,.58.58L4.239,10.031a.408.408,0,0,1-.58,0ZM2.6,12.495H4.007v1.063l-1.89.331-.911-.911.331-1.89H2.6Z" transform="translate(1289.477 1610.426)" fill="#00256d"/></g></svg>