<svg xmlns="http://www.w3.org/2000/svg" width="76.007" height="76.006" viewBox="0 0 76.007 76.006"><g transform="translate(-0.005 -0.006)"><path d="M49.918,24.815,60.275.663,57.813.1A3.587,3.587,0,0,0,53.73,2.159L46.6,18.786a3.548,3.548,0,0,0,1.026,4.157Zm-26.963,22.8A3.563,3.563,0,0,0,18.8,46.59L2.171,53.715a3.607,3.607,0,0,0-2.078,4.1l.564,2.448L24.827,49.9Zm50.3-43.957L64.975,1.748l-11.232,26.2L56.622,30.3a55.015,55.015,0,0,1-26.3,26.306l-2.357-2.88L1.744,64.966l1.914,8.287a3.563,3.563,0,0,0,3.472,2.76A68.873,68.873,0,0,0,76.011,7.131a3.563,3.563,0,0,0-2.76-3.472Z" fill="#2b54a3" opacity="0.4"/><path d="M64.027,4.43,53.669,28.582l3.826,3.134,11.232-26.2ZM4.41,64.029l1.085,4.7L31.712,57.5l-3.132-3.826Z" transform="translate(-3.751 -3.767)" fill="#2b54a3"/></g></svg>