<svg xmlns="http://www.w3.org/2000/svg" width="19" height="19" viewBox="0 0 19 19"><path d="M16.964,32H2.036A2.036,2.036,0,0,0,0,34.036V48.964A2.036,2.036,0,0,0,2.036,51H16.964A2.036,2.036,0,0,0,19,48.964V34.036A2.036,2.036,0,0,0,16.964,32ZM15.607,42.687a.51.51,0,0,1-.509.509H11.2v3.9a.51.51,0,0,1-.509.509H8.313A.51.51,0,0,1,7.8,47.1V43.2H3.9a.51.51,0,0,1-.509-.509V40.312A.51.51,0,0,1,3.9,39.8H7.8V35.9a.51.51,0,0,1,.509-.509h2.375a.51.51,0,0,1,.509.509v3.9h3.9a.51.51,0,0,1,.509.509Z" transform="translate(0 -32)" fill="#00256d"/></svg>