<svg xmlns="http://www.w3.org/2000/svg" width="52.482" height="69.979" viewBox="0 0 52.482 69.979"><g transform="translate(0 -0.005)"><path d="M48.984.446,43.735,6.564,36.3.446a2.173,2.173,0,0,0-2.624,0L26.241,6.564,18.806.446a2.173,2.173,0,0,0-2.624,0L8.747,6.564,3.5.446A2.187,2.187,0,0,0,0,2.191v65.6a2.187,2.187,0,0,0,3.5,1.749L8.747,63.42l7.435,6.123a2.173,2.173,0,0,0,2.624,0l7.435-6.123,7.435,6.123a2.173,2.173,0,0,0,2.624,0l7.435-6.123,5.248,6.123a2.187,2.187,0,0,0,3.5-1.749V2.191a2.187,2.187,0,0,0-3.5-1.745ZM43.735,49.206A1.093,1.093,0,0,1,42.642,50.3H9.84a1.093,1.093,0,0,1-1.093-1.093V47.02A1.093,1.093,0,0,1,9.84,45.926h32.8a1.093,1.093,0,0,1,1.093,1.093Zm0-13.121a1.093,1.093,0,0,1-1.093,1.093H9.84a1.093,1.093,0,0,1-1.093-1.093V33.9A1.093,1.093,0,0,1,9.84,32.806h32.8A1.093,1.093,0,0,1,43.735,33.9Zm0-13.121a1.093,1.093,0,0,1-1.093,1.093H9.84a1.093,1.093,0,0,1-1.093-1.093V20.778A1.093,1.093,0,0,1,9.84,19.685h32.8a1.093,1.093,0,0,1,1.093,1.093Z" transform="translate(0 0)" fill="#2b54a3" opacity="0.4"/><path d="M97.895,144h-32.8A1.093,1.093,0,0,0,64,145.093v2.187a1.093,1.093,0,0,0,1.093,1.093h32.8a1.093,1.093,0,0,0,1.093-1.093v-2.187A1.093,1.093,0,0,0,97.895,144Zm0,13.121h-32.8A1.093,1.093,0,0,0,64,158.214V160.4a1.093,1.093,0,0,0,1.093,1.093h32.8a1.093,1.093,0,0,0,1.093-1.093v-2.187A1.093,1.093,0,0,0,97.895,157.121Zm0,13.121h-32.8A1.093,1.093,0,0,0,64,171.335v2.187a1.093,1.093,0,0,0,1.093,1.093h32.8a1.093,1.093,0,0,0,1.093-1.093v-2.187A1.093,1.093,0,0,0,97.895,170.241Z" transform="translate(-55.253 -124.315)" fill="#2b54a3"/></g></svg>