<svg xmlns="http://www.w3.org/2000/svg" width="20" height="15" viewBox="0 0 20 15"><g transform="translate(0 -64)"><path d="M7.031,79H3.75A3.75,3.75,0,0,1,0,75.25v-7.5A3.75,3.75,0,0,1,3.75,64H7.031a.469.469,0,0,1,.469.469v1.562a.469.469,0,0,1-.469.469H3.75A1.25,1.25,0,0,0,2.5,67.75v7.5A1.25,1.25,0,0,0,3.75,76.5H7.031a.469.469,0,0,1,.469.469v1.562A.469.469,0,0,1,7.031,79Z" fill="#2b54a3" opacity="0.4"/><path d="M167.539,81.613l5.933,5.883a.937.937,0,0,1,0,1.332l-5.937,5.891a.941.941,0,0,1-1.324,0l-.855-.855a.94.94,0,0,1,.031-1.355l3.031-2.777h-7.48a.935.935,0,0,1-.937-.937v-1.25a.935.935,0,0,1,.937-.937h7.48l-3.031-2.777a.937.937,0,0,1-.027-1.352l.855-.855A.937.937,0,0,1,167.539,81.613Z" transform="translate(-153.75 -16.664)" fill="#2b54a3"/></g></svg>