<svg xmlns="http://www.w3.org/2000/svg" width="98.041" height="98.041" viewBox="0 0 98.041 98.041"><g transform="translate(-8 -8)"><path d="M101.042,78.483Zm-4.349,1.208-5.5-3.143a3.147,3.147,0,0,1-1.372-3.8,36.37,36.37,0,1,1-32.8-52.1c1.164,0,2.315.057,3.451.164-.146-.014-.293-.03-.441-.042a3.181,3.181,0,0,1-3.01-3.129V11.319a3.163,3.163,0,0,1,3.032-3.163C59.045,8.091,58.044,8,57.021,8a49.021,49.021,0,1,0,44.022,70.483,3.153,3.153,0,0,1-4.349,1.208Z" fill="#2b54a3" opacity="0.4"/><path d="M259.01,21.195A3.181,3.181,0,0,1,256,18.066V11.729a3.179,3.179,0,0,1,3.315-3.2,48.976,48.976,0,0,1,40.764,70.3,3.154,3.154,0,0,1-4.4,1.275l-5.5-3.143A3.175,3.175,0,0,1,288.95,72.8a36.342,36.342,0,0,0-29.94-51.61Z" transform="translate(-198.979 -0.422)" fill="#2b54a3"/></g></svg>