<svg xmlns="http://www.w3.org/2000/svg" width="19" height="15.432" viewBox="0 0 19 15.432"><path d="M17.047,51.928c.012.169.012.338.012.506A11,11,0,0,1,5.98,63.514,11,11,0,0,1,0,61.765a8.056,8.056,0,0,0,.94.048A7.8,7.8,0,0,0,5.775,60.15a3.9,3.9,0,0,1-3.641-2.7,4.911,4.911,0,0,0,.735.06,4.118,4.118,0,0,0,1.025-.133A3.9,3.9,0,0,1,.772,53.555v-.048A3.922,3.922,0,0,0,2.532,54a3.9,3.9,0,0,1-1.206-5.208,11.069,11.069,0,0,0,8.029,4.075,4.4,4.4,0,0,1-.1-.892A3.9,3.9,0,0,1,16,49.312a7.667,7.667,0,0,0,2.471-.94,3.884,3.884,0,0,1-1.712,2.146,7.807,7.807,0,0,0,2.242-.6A8.371,8.371,0,0,1,17.047,51.928Z" transform="translate(0 -48.082)" fill="#fff"/></svg>