<svg xmlns="http://www.w3.org/2000/svg" width="20" height="16" viewBox="0 0 20 16"><path d="M50,6.781A2.977,2.977,0,0,0,48,6V2H34V6a2.977,2.977,0,0,0-2,.781V1.55A1.527,1.527,0,0,1,33.5,0h15A1.527,1.527,0,0,1,50,1.55Z" transform="translate(-31)" fill="#2b54a3" opacity="0.4"/><path d="M18,229H16a2,2,0,0,0-2,2v1a1,1,0,0,0,1,1h4a1,1,0,0,0,1-1v-1A2,2,0,0,0,18,229Zm-1-1a2,2,0,1,0-2-2A2,2,0,0,0,17,228Zm-6,1H9a2,2,0,0,0-2,2v1a1,1,0,0,0,1,1h4a1,1,0,0,0,1-1v-1A2,2,0,0,0,11,229Zm-7,0H2a2,2,0,0,0-2,2v1a1,1,0,0,0,1,1H5a1,1,0,0,0,1-1v-1A2,2,0,0,0,4,229Zm6-1a2,2,0,1,0-2-2A2,2,0,0,0,10,228Zm-7,0a2,2,0,1,0-2-2A2,2,0,0,0,3,228Z" transform="translate(0 -217)" fill="#2b54a3"/></svg>