<?xml version="1.0" standalone="no"?>
<!DOCTYPE svg PUBLIC "-//W3C//DTD SVG 1.1//EN" "http://www.w3.org/Graphics/SVG/1.1/DTD/svg11.dtd" >
<svg xmlns="http://www.w3.org/2000/svg" xmlns:xlink="http://www.w3.org/1999/xlink" version="1.1">
<metadata></metadata>
<defs>
<font id="gothamlight" horiz-adv-x="1310" >
<font-face units-per-em="2048" ascent="1638" descent="-410" />
<missing-glyph horiz-adv-x="614" />
<glyph horiz-adv-x="0" />
<glyph unicode="&#xd;" horiz-adv-x="614" />
<glyph unicode=" "  horiz-adv-x="614" />
<glyph unicode="&#x09;" horiz-adv-x="614" />
<glyph unicode="&#xa0;" horiz-adv-x="614" />
<glyph unicode="!" horiz-adv-x="516" d="M190 0h136v174h-136v-174zM199 1290l30 -915h58l30 915v144h-118v-144z" />
<glyph unicode="&#x22;" horiz-adv-x="839" d="M139 913h60l145 510v11h-133zM508 913h59l146 510v11h-133z" />
<glyph unicode="#" horiz-adv-x="1433" d="M100 383h248l-65 -383h98l65 383h424l-65 -383h98l66 383h280v96h-264l84 484h262v96h-246l64 375h-98l-64 -375h-424l64 375h-99l-63 -375h-283v-96h267l-84 -484h-265v-96zM463 479l84 484h424l-84 -484h-424z" />
<glyph unicode="$" horiz-adv-x="1294" d="M123 221q111 -98 227.5 -152.5t257.5 -66.5v-203h99v201q96 4 177 32.5t139 79t90 118t32 149.5q0 150 -104.5 242t-338.5 141v575q90 -10 171 -47t161 -108l68 80q-92 74 -184.5 115.5t-210.5 52.5v122h-99v-118q-94 -2 -173 -32t-136 -79t-89 -115.5t-32 -144.5 t24.5 -137.5t77 -106.5t135.5 -82t197 -59v-582q-125 10 -225 62.5t-197 142.5zM283 1071q0 55 23.5 103.5t66.5 85t104.5 58t134.5 23.5v-559q-100 25 -163.5 53.5t-100.5 64.5t-51 78t-14 93zM702 92v565q100 -23 166 -50t105 -62t53 -78t14 -96q0 -59 -23.5 -108.5 t-68.5 -86.5t-107.5 -59.5t-138.5 -24.5z" />
<glyph unicode="%" horiz-adv-x="1687" d="M113 1081q0 -72 22.5 -138t63.5 -116.5t98 -80t129 -29.5t130 30.5t100 81t64.5 116.5t22.5 140q0 72 -22.5 138.5t-63.5 117t-99 80t-128 29.5q-72 0 -130 -30.5t-100 -81t-64.5 -117t-22.5 -140.5zM219 1085q0 57 15.5 108.5t43 88.5t65.5 58.5t83 21.5q43 0 81 -20.5 t67.5 -58.5t46 -89.5t16.5 -112.5q0 -59 -15.5 -109t-43 -87t-65.5 -58.5t-83 -21.5q-43 0 -81 20.5t-67.5 58.5t-46 89t-16.5 112zM262 0h111l1052 1434h-110zM944 348q0 -72 22.5 -138.5t63.5 -116.5t98.5 -79.5t128.5 -29.5q72 0 130.5 30.5t100.5 80.5t64.5 116.5 t22.5 140.5q0 72 -22.5 138.5t-63.5 116.5t-99.5 80t-127.5 30q-72 0 -130.5 -31t-100.5 -81t-64.5 -116.5t-22.5 -140.5zM1051 352q0 57 15 108.5t43 88.5t65.5 58.5t82.5 21.5q43 0 81 -20.5t68 -58.5t46 -89.5t16 -112.5q0 -59 -15 -109.5t-43 -87t-65.5 -58t-82.5 -21.5 q-43 0 -81 20.5t-68 58t-46 89t-16 112.5z" />
<glyph unicode="&#x26;" horiz-adv-x="1425" d="M100 379q0 -90 34 -163t92.5 -126t139 -81.5t175.5 -28.5q145 0 264 64.5t221 182.5l248 -256l84 70l-264 272q59 78 111 174.5t102 206.5l-97 39q-41 -98 -87 -186t-99 -162l-377 387q166 57 259 146.5t93 226.5q0 66 -25.5 123t-69.5 99t-104.5 66.5t-129.5 24.5 q-78 0 -144.5 -24.5t-113.5 -68.5t-74 -104.5t-27 -130.5q0 -92 39 -164.5t121 -164.5q-176 -66 -273.5 -170.5t-97.5 -251.5zM207 383q0 106 77.5 199.5t250.5 152.5l423 -438q-90 -104 -192 -164.5t-223 -60.5q-74 0 -135.5 23.5t-106.5 65.5t-69.5 99t-24.5 123z M418 1135q0 49 18.5 92t51 73.5t77.5 49t101 18.5q98 0 162.5 -64.5t64.5 -162.5q0 -205 -309 -303q-47 51 -79 91t-51.5 73.5t-27.5 65.5t-8 67z" />
<glyph unicode="'" horiz-adv-x="471" d="M139 913h60l145 510v11h-133z" />
<glyph unicode="(" horiz-adv-x="880" d="M145 588q0 -281 147.5 -502t420.5 -375l43 68q-244 150 -374 350.5t-130 458.5t130 458.5t374 350.5l-43 67q-272 -154 -420 -375t-148 -501z" />
<glyph unicode=")" horiz-adv-x="880" d="M125 -221l43 -68q272 154 419.5 375t147.5 502t-147.5 502t-419.5 374l-43 -67q244 -150 374 -350.5t130 -458.5t-130 -459t-374 -350z" />
<glyph unicode="*" horiz-adv-x="880" d="M154 1020l45 -76l217 148l-19 -261h86l-18 261l217 -148l45 76l-242 115l242 114l-45 76l-217 -147l18 260h-86l19 -260l-217 147l-45 -76l241 -114z" />
<glyph unicode="+" d="M160 672h444v-441h103v441h444v98h-444v440h-103v-440h-444v-98z" />
<glyph unicode="," horiz-adv-x="471" d="M109 -168l24 -51q92 35 131 90t39 152v151h-135v-174h55q4 -59 -22 -96t-92 -72z" />
<glyph unicode="-" horiz-adv-x="835" d="M143 551h549v115h-549v-115z" />
<glyph unicode="." horiz-adv-x="471" d="M168 0h135v174h-135v-174z" />
<glyph unicode="/" horiz-adv-x="1024" d="M-37 -262h100l967 1896h-100z" />
<glyph unicode="0" horiz-adv-x="1454" d="M133 715q0 -150 41 -284t118 -235.5t186.5 -161t246.5 -59.5t246.5 60.5t187.5 163t120 236.5t42 284t-41 284t-118 235t-186.5 160.5t-246.5 59.5t-246.5 -60.5t-187.5 -162.5t-120 -236.5t-42 -283.5zM244 719q0 125 33.5 241.5t96 205.5t151.5 142.5t200 53.5 t201 -54.5t153.5 -143.5t97 -206.5t33.5 -242.5q0 -127 -33.5 -243t-96 -205t-151.5 -142t-200 -53t-201 54t-153.5 143t-97 206t-33.5 244z" />
<glyph unicode="1" horiz-adv-x="686" d="M61 1323l29 -84l277 94v-1333h104v1444h-82z" />
<glyph unicode="2" horiz-adv-x="1208" d="M98 0h979v102h-811l439 398q94 86 161.5 156.5t111.5 135t64.5 129t20.5 138.5q0 84 -33 156.5t-89 126t-134 83t-170 29.5q-94 0 -168 -21.5t-134.5 -61.5t-110.5 -96t-97 -128l80 -53q90 129 186.5 197.5t233.5 68.5q63 0 122.5 -21.5t103.5 -61.5t70.5 -97.5 t26.5 -126.5q0 -57 -16 -110.5t-53 -111t-98.5 -123t-149.5 -145.5l-535 -483v-80z" />
<glyph unicode="3" horiz-adv-x="1249" d="M111 233q88 -115 219 -186.5t307 -71.5q92 0 177 30t149.5 85t102.5 133t38 172q0 98 -41 172t-110.5 124t-162 78t-194.5 34l485 555v76h-897v-101h752l-494 -569l27 -59h78q96 0 178 -20.5t141.5 -60.5t93 -98.5t33.5 -134.5q0 -72 -28.5 -130t-76.5 -100t-112.5 -65.5 t-136.5 -23.5q-141 0 -250.5 59t-195.5 170z" />
<glyph unicode="4" horiz-adv-x="1359" d="M98 430l37 -80h776v-350h103v350h233v92h-233v1002h-96zM227 442l684 848v-848h-684z" />
<glyph unicode="5" horiz-adv-x="1239" d="M117 207q94 -96 224 -164t277 -68q109 0 200 34t157.5 95.5t104.5 146.5t38 187q0 96 -38 176t-104.5 137.5t-155.5 89t-193 31.5q-100 0 -174 -21.5t-144 -55.5l35 536h711v103h-805l-41 -695l82 -53q68 37 145.5 63.5t177.5 26.5q86 0 159 -25.5t125 -70.5t81 -107.5 t29 -138.5t-29 -142.5t-79 -115.5t-120.5 -76.5t-156.5 -27.5q-115 0 -223.5 56t-206.5 155z" />
<glyph unicode="6" horiz-adv-x="1314" d="M131 680q0 -113 11.5 -198t35 -150.5t57 -116.5t78.5 -96q66 -66 160 -105t205 -39q106 0 197.5 35t159 98.5t106.5 150.5t39 190q0 96 -40 177t-107.5 138t-158 89t-188.5 32q-88 0 -157.5 -22.5t-124 -59.5t-95.5 -85t-71 -100q-4 164 27.5 301.5t93 235.5t150.5 152.5 t198 54.5q102 0 186 -39t168 -113l67 82q-94 78 -192 122t-221 44q-133 0 -241.5 -60.5t-184.5 -166t-117 -247.5t-41 -304zM281 434q0 68 29.5 131.5t81.5 113.5t126 81t162 31q86 0 156.5 -27t123 -73t81 -109.5t28.5 -137.5q0 -78 -27.5 -145.5t-78 -117.5t-121 -79.5 t-156.5 -29.5t-160.5 27.5t-129 75.5t-85 114.5t-30.5 144.5z" />
<glyph unicode="7" horiz-adv-x="1202" d="M139 1331h832l-652 -1331h117l654 1356v78h-951v-103z" />
<glyph unicode="8" horiz-adv-x="1290" d="M113 385q0 -90 41 -165t112.5 -128t168.5 -82.5t210 -29.5t210 29.5t169 82.5t113 128t41 165q0 63 -25 118.5t-67 100.5t-100 80t-126 57q53 20 101.5 52t85 73t59 93.5t22.5 117.5q0 84 -40.5 153.5t-108.5 119t-155 77t-179 27.5t-179 -27.5t-154.5 -77t-108.5 -119 t-41 -153.5q0 -66 22.5 -118t59.5 -93t85 -72.5t101 -52.5q-68 -23 -126 -57.5t-100 -79.5t-66.5 -100t-24.5 -119zM223 381q0 68 33 124t90 98t134 64.5t165 22.5t165 -22.5t134 -64.5t90 -98t33 -124q0 -61 -28.5 -116.5t-83 -97.5t-133.5 -66.5t-177 -24.5t-177 24.5 t-133 66.5t-83 97t-29 117zM272 1077q0 61 29 112.5t79 89.5t118.5 58.5t146.5 20.5t146.5 -20.5t119 -58.5t79 -89.5t28.5 -112.5q0 -68 -30 -122t-81 -93t-118.5 -60.5t-143.5 -21.5t-143.5 21.5t-118.5 60.5t-81 93.5t-30 121.5z" />
<glyph unicode="9" horiz-adv-x="1314" d="M135 975q0 -92 37 -173t102.5 -140.5t156.5 -93t200 -33.5q84 0 152.5 22.5t124 60t97.5 88t72 105.5q6 -162 -26.5 -297t-96 -233.5t-153.5 -153.5t-199 -55q-98 0 -186 41t-180 123l-68 -82q90 -76 193.5 -127.5t238.5 -51.5q125 0 231.5 57.5t185.5 161t123 246 t44 312.5q0 109 -12.5 193.5t-35 152t-56 120t-76.5 95.5q-66 66 -157 105.5t-208 39.5q-113 0 -205 -38t-158.5 -103.5t-103.5 -153.5t-37 -188zM246 979q0 76 26.5 144.5t75.5 121.5t120 85t159 32t163.5 -28.5t129 -78t84 -117t30.5 -143.5q0 -68 -27.5 -134t-80 -117.5 t-126 -83t-165.5 -31.5q-86 0 -156.5 26.5t-123 72.5t-81 110.5t-28.5 140.5z" />
<glyph unicode=":" horiz-adv-x="491" d="M178 0h135v174h-135v-174zM178 870h135v174h-135v-174z" />
<glyph unicode=";" horiz-adv-x="491" d="M119 -168l24 -51q92 35 131 90t39 152v151h-135v-174h55q4 -59 -22 -96t-92 -72zM178 870h135v174h-135v-174z" />
<glyph unicode="&#x3c;" d="M150 680l950 -494v111l-826 426l826 422v110l-950 -493v-82z" />
<glyph unicode="=" d="M190 438h930v105h-930v-105zM190 899h930v105h-930v-105z" />
<glyph unicode="&#x3e;" d="M211 186l950 494v82l-950 493v-110l825 -426l-825 -422v-111z" />
<glyph unicode="?" horiz-adv-x="1093" d="M70 1208l73 -61q80 98 176.5 154.5t219.5 56.5q78 0 141 -24.5t107 -67.5t68 -99.5t24 -119.5q0 -150 -110.5 -238t-315.5 -92l-11 -10l27 -332h66l18 256q88 10 168 40.5t138.5 83t93 126t34.5 170.5q0 82 -31.5 155.5t-89 128t-140.5 86t-183 31.5q-164 0 -274.5 -67.5 t-198.5 -176.5zM434 0h135v174h-135v-174z" />
<glyph unicode="@" horiz-adv-x="2007" d="M109 561q0 -184 68.5 -346t191.5 -283.5t289.5 -192.5t363.5 -71q160 0 292 41t251 113l-31 51q-119 -70 -238.5 -104.5t-273.5 -34.5q-184 0 -340 64.5t-267.5 177t-174 263t-62.5 322.5t62.5 322.5t173 264.5t262 179.5t330.5 65.5q176 0 326.5 -63.5t261 -168 t173 -239t62.5 -275.5q0 -111 -25.5 -191.5t-67.5 -132t-95.5 -76t-106.5 -24.5q-88 0 -136 46t-48 134q0 39 18 148l76 432l-98 12l-29 -153q-18 33 -45 65.5t-64 59t-86 42t-110 15.5q-86 0 -171 -39t-154 -106.5t-110.5 -160.5t-41.5 -204q0 -82 28.5 -148.5t77.5 -114.5 t115.5 -74.5t140.5 -26.5q61 0 111.5 15t93.5 40.5t79 60.5t66 74q27 -88 98.5 -139t180.5 -51q66 0 132 28.5t119.5 89t87 154.5t33.5 225q0 162 -68.5 309.5t-189 259t-283.5 177t-351 65.5t-352.5 -71.5t-285 -193.5t-190 -285t-69.5 -347zM641 522q0 86 32 160t84 128 t118.5 85t136.5 31q57 0 107 -21.5t86 -60.5t56.5 -90.5t20.5 -112.5q0 -76 -30.5 -146.5t-82 -126t-118 -89t-138.5 -33.5q-121 0 -196.5 72.5t-75.5 203.5z" />
<glyph unicode="A" horiz-adv-x="1617" d="M90 0h111l182 401h846l182 -401h117l-668 1444h-102zM428 498l379 829l377 -829h-756z" />
<glyph unicode="B" horiz-adv-x="1478" d="M213 0h623q117 0 211 27.5t161.5 78t104.5 123t37 162.5v4q0 74 -27 130.5t-71 98.5t-103 69.5t-123 43.5q43 18 87 46t79 69t56.5 96.5t21.5 128.5v4q0 80 -34 145.5t-94.5 111.5t-146.5 71t-190 25h-592v-1434zM319 98v576h486q213 0 324.5 -73t111.5 -206v-4 q0 -135 -108.5 -214t-292.5 -79h-521zM319 772v563h484q174 0 266 -72.5t92 -191.5v-4q0 -72 -27.5 -127t-76.5 -92t-117 -56.5t-147 -19.5h-474z" />
<glyph unicode="C" horiz-adv-x="1511" d="M150 713q0 -154 53 -289t148 -234.5t226.5 -157t284.5 -57.5q94 0 174 18.5t148.5 51.5t129.5 79t118 101l-72 70q-109 -109 -223.5 -166t-270.5 -57q-129 0 -239.5 50t-191.5 137t-128 205t-47 253v4q0 135 46 252t127 204t191.5 136t239.5 49q80 0 148.5 -16.5t127 -44 t109.5 -66.5t99 -84l75 78q-55 51 -113.5 93t-125 72.5t-144 47t-174.5 16.5q-156 0 -286.5 -58.5t-226 -159.5t-149.5 -236.5t-54 -286.5v-4z" />
<glyph unicode="D" horiz-adv-x="1601" d="M213 0h477q168 0 308.5 55.5t241.5 151.5t156.5 227t55.5 283v4q0 152 -55.5 282t-156.5 226t-241.5 150.5t-308.5 54.5h-477v-1434zM319 98v1237h371q150 0 270.5 -49t204.5 -133t130 -196.5t46 -239.5v-4q0 -129 -46 -241t-130 -194.5t-204.5 -131t-270.5 -48.5h-371z " />
<glyph unicode="E" horiz-adv-x="1372" d="M213 0h1030v98h-924v576h822v98h-822v563h914v99h-1020v-1434z" />
<glyph unicode="F" horiz-adv-x="1343" d="M213 0h106v649h811v99h-811v587h904v99h-1010v-1434z" />
<glyph unicode="G" horiz-adv-x="1605" d="M150 713q0 -152 49 -286t141 -234.5t226 -159t304 -58.5q176 0 321 64.5t243 150.5v553h-582v-98h479v-412q-39 -33 -90 -62.5t-109.5 -52t-124 -35.5t-133.5 -13q-143 0 -256.5 49t-193.5 135t-122 205t-42 258v4q0 129 43 245.5t122 205t187.5 139.5t239.5 51 q162 0 269.5 -49t191.5 -123l69 80q-53 45 -109 79.5t-118.5 59.5t-135.5 37t-161 12q-160 0 -291 -61.5t-224 -164t-143 -236.5t-50 -279v-4z" />
<glyph unicode="H" horiz-adv-x="1556" d="M213 0h106v672h918v-672h106v1434h-106v-664h-918v664h-106v-1434z" />
<glyph unicode="I" horiz-adv-x="561" d="M227 0h107v1434h-107v-1434z" />
<glyph unicode="J" horiz-adv-x="1124" d="M76 248q66 -119 170 -193.5t264 -74.5q88 0 166 30.5t135 92t90 152.5t33 212v967h-107v-975q0 -94 -23.5 -166t-65.5 -120t-99 -72.5t-123 -24.5q-63 0 -113.5 14t-92.5 43t-77.5 72t-68.5 98z" />
<glyph unicode="K" horiz-adv-x="1464" d="M213 0h106v365l357 360l590 -725h139l-653 801l626 633h-145l-914 -942v942h-106v-1434z" />
<glyph unicode="L" horiz-adv-x="1267" d="M213 0h948v98h-842v1336h-106v-1434z" />
<glyph unicode="M" horiz-adv-x="1777" d="M213 0h102v1245l568 -825h8l567 825v-1245h107v1434h-101l-575 -848l-576 848h-100v-1434z" />
<glyph unicode="N" horiz-adv-x="1617" d="M213 0h102v1274l1010 -1274h80v1434h-102v-1248l-990 1248h-100v-1434z" />
<glyph unicode="O" horiz-adv-x="1740" d="M150 713q0 -147 51 -280.5t145 -235t226.5 -162t295.5 -60.5q162 0 296 60.5t228.5 163t146.5 237t52 281.5q2 2 0 4q0 147 -51 280.5t-145.5 234.5t-227.5 161.5t-295 60.5q-164 0 -297 -60.5t-227 -162.5t-146 -236.5t-52 -281.5v-4zM260 717v4q0 133 45 249.5t126 204 t192.5 137.5t244.5 50t246 -51t194 -138.5t127 -205t46 -250.5v-4q0 -133 -45 -250t-126 -204t-192.5 -137t-245.5 -50q-133 0 -245.5 51t-193.5 138t-127 205t-46 251z" />
<glyph unicode="P" horiz-adv-x="1368" d="M213 0h106v535h388q113 0 214 28.5t178 86t122 143t45 198.5v4q0 104 -39 185.5t-109.5 137.5t-168 86t-216.5 30h-520v-1434zM319 633v702h406q96 0 176 -22.5t137.5 -65.5t89 -107.5t31.5 -150.5v-4q0 -80 -32.5 -145.5t-91 -111.5t-140.5 -70.5t-182 -24.5h-394z" />
<glyph unicode="Q" horiz-adv-x="1740" d="M150 713q0 -147 51 -280.5t145 -235t226.5 -162t295.5 -60.5q139 0 255 43t208 121l201 -182l76 82l-205 172q92 102 140 232t48 274q2 2 0 4q0 147 -51 280.5t-145.5 234.5t-227.5 161.5t-295 60.5q-164 0 -297 -60.5t-227 -162.5t-146 -236.5t-52 -281.5v-4zM260 717v4 q0 133 45 249.5t126 204t192.5 137.5t244.5 50t246 -51t194 -138.5t127 -205t46 -250.5v-4q0 -125 -41 -236.5t-115 -197.5l-274 249l-76 -84l278 -237q-76 -63 -172 -99t-209 -36q-133 0 -245.5 51t-193.5 138t-127 205t-46 251z" />
<glyph unicode="R" horiz-adv-x="1480" d="M213 0h106v594h469l457 -594h135l-473 612q90 12 167 44t133.5 83.5t88 122t31.5 160.5v4q0 90 -37 165t-103.5 129t-160.5 84t-211 30h-602v-1434zM319 690v645h490q197 0 304.5 -84t107.5 -229v-4q0 -78 -32 -138.5t-87 -102.5t-132 -64.5t-167 -22.5h-484z" />
<glyph unicode="S" d="M121 209q129 -115 267 -172t310 -57q104 0 191.5 28.5t150 79.5t98.5 124t36 159v4q0 158 -111 251t-361 144q-127 27 -208.5 57.5t-128 68.5t-63.5 84t-17 103v4q0 55 24.5 104.5t70.5 86.5t110.5 58.5t144.5 21.5q119 0 222.5 -37t205.5 -125l67 84q-109 88 -222 131 t-269 43q-100 0 -184 -28.5t-145.5 -80t-96.5 -120t-35 -148.5v-4q0 -82 26.5 -145.5t85 -111.5t150.5 -84t222 -62q123 -25 200.5 -54.5t123.5 -66.5t63.5 -82t17.5 -102v-5q0 -61 -26.5 -113t-73.5 -90t-115 -59.5t-147 -21.5q-80 0 -148 13t-129 39t-119.5 65.5 t-118.5 95.5z" />
<glyph unicode="T" horiz-adv-x="1327" d="M111 1335h499v-1335h107v1335h500v99h-1106v-99z" />
<glyph unicode="U" horiz-adv-x="1556" d="M190 596q0 -152 43 -266.5t122 -193.5t186.5 -119t236.5 -40q131 0 238.5 41t185.5 121t121 197.5t43 271.5v826h-106v-838q0 -129 -34 -227.5t-96.5 -164t-150.5 -98t-197 -32.5q-229 0 -357 138t-128 394v828h-107v-838z" />
<glyph unicode="V" horiz-adv-x="1536" d="M90 1434l631 -1444h94l631 1444h-113l-563 -1319l-561 1319h-119z" />
<glyph unicode="W" horiz-adv-x="2256" d="M102 1434l521 -1444h86l419 1245l420 -1245h86l520 1444h-110l-451 -1276l-419 1280h-82l-420 -1280l-451 1276h-119z" />
<glyph unicode="X" horiz-adv-x="1478" d="M104 0h125l508 662l510 -662h127l-569 733l549 701h-125l-488 -631l-489 631h-127l551 -703z" />
<glyph unicode="Y" horiz-adv-x="1466" d="M66 1434l614 -867v-567h106v569l615 865h-127l-539 -770l-536 770h-133z" />
<glyph unicode="Z" horiz-adv-x="1409" d="M139 0h1133v96h-981l981 1278v60h-1098v-97h946l-981 -1278v-59z" />
<glyph unicode="[" horiz-adv-x="880" d="M201 -266h559v78h-465v1544h465v78h-559v-1700z" />
<glyph unicode="\" horiz-adv-x="1024" d="M-6 1634l967 -1896h100l-967 1896h-100z" />
<glyph unicode="]" horiz-adv-x="880" d="M121 -188v-78h559v1700h-559v-78h465v-1544h-465z" />
<glyph unicode="^" horiz-adv-x="1024" d="M143 1010h105l262 342l262 -342h109l-324 430h-90z" />
<glyph unicode="_" horiz-adv-x="1228" d="M-4 -238v-90h1237v90h-1237z" />
<glyph unicode="`" horiz-adv-x="1024" d="M322 1430l219 -211h86l-181 272z" />
<glyph unicode="a" horiz-adv-x="1175" d="M104 303q0 -82 36 -143.5t93.5 -102.5t129 -61.5t145.5 -20.5t136.5 17.5t111.5 45.5t87 63.5t64 72.5v-174h99v651q0 205 -117 307.5t-320 102.5q-109 0 -196.5 -24.5t-173.5 -65.5l37 -88q72 37 151.5 60.5t175.5 23.5q162 0 253 -80t91 -240v-45q-76 20 -155.5 32.5 t-190.5 12.5q-102 0 -186 -22.5t-143.5 -65.5t-93.5 -106.5t-34 -145.5v-4zM211 309v4q0 111 89 177.5t255 66.5q113 0 201 -15.5t153 -31.5v-119q0 -72 -31.5 -131t-86 -101t-126 -65.5t-151.5 -23.5q-59 0 -114.5 16t-97.5 47t-66.5 75t-24.5 101z" />
<glyph unicode="b" horiz-adv-x="1351" d="M190 0h101v225q33 -49 75 -94t94 -80t117.5 -55.5t143.5 -20.5q94 0 185 38t163 109t116 172t44 228v4q0 127 -44 228.5t-116 171t-163 106.5t-185 37q-78 0 -142.5 -21.5t-116.5 -56.5t-95 -82t-76 -98v684h-101v-1495zM285 520v4q0 100 35.5 182t95 141.5t136.5 92.5 t159 33t156.5 -32t131 -90t89 -142t32.5 -187v-4q0 -104 -31.5 -187t-87 -140.5t-130 -88t-160.5 -30.5q-82 0 -159 32.5t-136.5 91t-95 141.5t-35.5 183z" />
<glyph unicode="c" horiz-adv-x="1169" d="M119 518q0 -111 41 -209t112.5 -172t169 -118t209.5 -44q143 0 244.5 58.5t181.5 148.5l-69 62q-66 -74 -153 -124t-198 -50q-90 0 -167.5 34.5t-136 96t-92.5 144.5t-34 177v4q0 94 33 176t89.5 142.5t133 95.5t166.5 35q117 0 199 -51.5t149 -120.5l72 74 q-37 39 -79 73.5t-93 61t-111.5 42t-134.5 15.5q-113 0 -210 -44t-168.5 -120t-112.5 -174t-41 -209v-4z" />
<glyph unicode="d" horiz-adv-x="1351" d="M123 518q0 -127 44 -228.5t115.5 -171t163 -106.5t185.5 -37q78 0 142.5 21.5t116.5 56.5t94 82t77 98v-233h100v1495h-100v-676q-33 49 -75 94t-94 80t-117.5 55.5t-143.5 20.5q-94 0 -185.5 -38t-163 -108.5t-115.5 -172t-44 -228.5v-4zM231 522v4q0 104 32 187.5 t87.5 140.5t130 88t160.5 31q82 0 159 -33t136 -91t95 -141t36 -184v-4q0 -100 -36 -182t-95 -141.5t-136 -92t-159 -32.5t-156.5 31.5t-131 90t-89.5 142.5t-33 186z" />
<glyph unicode="e" horiz-adv-x="1196" d="M119 520q0 -123 41 -223t111.5 -172t163.5 -111t196 -39q150 0 251 55.5t181 141.5l-70 61q-66 -70 -150.5 -116.5t-207.5 -46.5q-78 0 -148.5 27.5t-126 80.5t-92.5 129t-43 174h867q2 12 2 19v18v4q0 117 -34 216.5t-96.5 173t-150.5 115.5t-199 42q-106 0 -196 -43 t-156.5 -116.5t-104.5 -173t-38 -212.5v-4zM225 571q6 86 39 161t83 129t117.5 85t145.5 31q90 0 158 -34t114 -90t71.5 -129t31.5 -153h-760z" />
<glyph unicode="f" horiz-adv-x="741" d="M100 952h152v-952h100v952h365v92h-365v101q0 264 211 264q41 0 76 -6.5t80 -20.5v95q-35 12 -72 18t-84 6q-147 0 -229 -92t-82 -262v-103h-152v-92z" />
<glyph unicode="g" horiz-adv-x="1351" d="M123 569q0 -113 43 -203t113.5 -154.5t160.5 -99t185 -34.5q78 0 143.5 19.5t118.5 53t96 76.5t78 92v-151q0 -100 -31 -176t-85 -127t-129 -77t-165 -26q-231 0 -422 148l-59 -82q215 -160 479 -160q111 0 205 33t162.5 95.5t106.5 154.5t38 211v882h-100v-208 q-33 45 -76 88t-96 74.5t-120 51t-144 19.5q-94 0 -184.5 -35t-161 -99.5t-113.5 -156.5t-43 -205v-4zM231 573v5q0 92 32 164.5t87.5 124t129 79t155.5 27.5t159.5 -27.5t138 -80t97.5 -126t37 -164.5v-4q0 -90 -37 -162.5t-97.5 -125t-138 -81t-159.5 -28.5 q-80 0 -153.5 29.5t-129 82t-88.5 126t-33 161.5z" />
<glyph unicode="h" horiz-adv-x="1255" d="M190 0h101v604q0 82 27.5 150.5t76.5 118t114.5 77t143.5 27.5q160 0 246 -97.5t86 -258.5v-621h100v639q0 94 -27.5 173t-81.5 136.5t-132 89t-176 31.5q-143 0 -233.5 -63.5t-143.5 -155.5v645h-101v-1495z" />
<glyph unicode="i" horiz-adv-x="509" d="M193 1317h124v137h-124v-137zM205 0h100v1044h-100v-1044z" />
<glyph unicode="j" horiz-adv-x="509" d="M-2 -238v-88q41 -8 84 -8q102 0 162.5 59.5t60.5 182.5v1136h-100v-1142q0 -74 -35 -110t-90 -36q-16 0 -40 1t-42 5zM193 1317h124v137h-124v-137z" />
<glyph unicode="k" horiz-adv-x="1146" d="M190 0h101v254l254 256l413 -510h127l-471 582l457 462h-133l-647 -669v1120h-101v-1495z" />
<glyph unicode="l" horiz-adv-x="509" d="M205 0h100v1495h-100v-1495z" />
<glyph unicode="m" horiz-adv-x="1947" d="M190 0h101v602q0 80 25.5 147.5t70.5 119t106.5 80t131.5 28.5q141 0 223 -93t82 -257v-627h100v608q0 88 26.5 157t72 116t105.5 71.5t126 24.5q145 0 227 -93t82 -263v-621h100v633q0 98 -27.5 179t-79.5 137.5t-127 88t-167 31.5q-74 0 -132 -18.5t-104.5 -50 t-81 -72.5t-59.5 -84q-23 45 -54.5 86t-74.5 71.5t-99 49t-124 18.5q-70 0 -124 -17.5t-95 -47t-73 -67.5t-56 -79v186h-101v-1044z" />
<glyph unicode="n" horiz-adv-x="1255" d="M190 0h101v604q0 82 27.5 150.5t76.5 118t114.5 77t143.5 27.5q160 0 246 -97.5t86 -258.5v-621h100v639q0 94 -27.5 173t-81.5 136.5t-132 89t-176 31.5q-143 0 -233.5 -63.5t-143.5 -155.5v194h-101v-1044z" />
<glyph unicode="o" d="M119 518q0 -111 40 -209t111.5 -172t169 -118t213.5 -44q117 0 215.5 44t171 120t112.5 174t40 209v4q0 111 -40 209.5t-111.5 172t-169 117.5t-214.5 44t-215 -44t-170.5 -120t-112.5 -174t-40 -209v-4zM227 522v4q0 92 32 174t88 142.5t135 96.5t171 36q90 0 169 -35 t137.5 -96.5t91 -144.5t32.5 -177v-4q0 -92 -31.5 -174t-88 -142.5t-135 -96t-171.5 -35.5q-90 0 -168.5 34.5t-137 96t-91.5 144.5t-33 177z" />
<glyph unicode="p" horiz-adv-x="1351" d="M190 -328h101v553q33 -49 75 -94t94 -80t117.5 -55.5t143.5 -20.5q94 0 185 38t163 109t116 172t44 228v4q0 127 -44 228.5t-116 171t-163 106.5t-185 37q-78 0 -142.5 -21.5t-116.5 -56.5t-95 -82t-76 -98v233h-101v-1372zM285 520v4q0 100 35.5 182t95 141.5 t136.5 92.5t159 33t156.5 -32t131 -90t89 -142t32.5 -187v-4q0 -104 -31.5 -187t-87 -140.5t-130 -88t-160.5 -30.5q-82 0 -159 32.5t-136.5 91t-95 141.5t-35.5 183z" />
<glyph unicode="q" horiz-adv-x="1351" d="M123 518q0 -127 44 -228.5t115.5 -171t163 -106.5t185.5 -37q78 0 142.5 21.5t116.5 56.5t94 82t77 98v-561h100v1372h-100v-225q-33 49 -75 94t-94 80t-117.5 55.5t-143.5 20.5q-94 0 -185.5 -38t-163 -108.5t-115.5 -172t-44 -228.5v-4zM231 522v4q0 104 32 187.5 t87.5 140.5t130 88t160.5 31q82 0 159 -33t136 -91t95 -141t36 -184v-4q0 -100 -36 -182t-95 -141.5t-136 -92t-159 -32.5t-156.5 31.5t-131 90t-89.5 142.5t-33 186z" />
<glyph unicode="r" horiz-adv-x="819" d="M190 0h101v428q0 127 37 224.5t99 164t144 100t172 33.5h11v111h-13q-71 1 -135 -19q-70 -22 -130 -64t-107 -101.5t-78 -128.5v296h-101v-1044z" />
<glyph unicode="s" horiz-adv-x="1017" d="M100 131q84 -68 199 -109.5t229 -41.5q76 0 141.5 21.5t115 61t77 96t27.5 126.5v4q0 70 -30 117t-79 80.5t-110.5 55t-124.5 40.5q-55 16 -108.5 33.5t-93.5 40t-64.5 54t-24.5 74.5v4q0 78 64.5 130.5t173.5 52.5q84 0 166.5 -29t154.5 -76l53 84q-78 53 -177 84 t-193 31q-76 0 -139.5 -21.5t-108.5 -60.5t-70.5 -91t-25.5 -116v-4q0 -70 31.5 -117t82.5 -78.5t115.5 -52t128.5 -39.5q55 -16 104.5 -32.5t88 -41t61 -57t22.5 -78.5v-4q0 -92 -72.5 -145t-178.5 -53q-100 0 -194.5 35.5t-180.5 101.5z" />
<glyph unicode="t" horiz-adv-x="819" d="M94 952h152v-684q0 -74 22.5 -128t62.5 -90t93 -52t115 -16q49 0 89 9t81 27v95q-45 -20 -80 -28.5t-74 -8.5q-92 0 -150.5 45t-58.5 158v673h367v92h-367v334h-100v-334h-152v-92z" />
<glyph unicode="u" horiz-adv-x="1255" d="M170 406q0 -94 27.5 -173t82 -136.5t132 -89.5t176.5 -32q143 0 233 63.5t144 156.5v-195h100v1044h-100v-604q0 -82 -28 -150.5t-77 -117.5t-115.5 -76.5t-142.5 -27.5q-160 0 -246 97t-86 259v620h-100v-638z" />
<glyph unicode="v" horiz-adv-x="1191" d="M84 1044l469 -1052h86l469 1052h-113l-399 -931l-395 931h-117z" />
<glyph unicode="w" horiz-adv-x="1763" d="M100 1044l383 -1052h86l314 895l311 -895h86l383 1052h-109l-315 -917l-315 922h-80l-316 -922l-315 917h-113z" />
<glyph unicode="x" horiz-adv-x="1167" d="M92 0h121l369 465l368 -465h125l-428 535l412 509h-121l-352 -442l-353 442h-124l411 -512z" />
<glyph unicode="y" horiz-adv-x="1204" d="M80 1044l502 -1038q-29 -68 -57.5 -115t-59.5 -76.5t-65.5 -42t-75.5 -12.5q-59 0 -98.5 9.5t-80.5 29.5l-34 -88q53 -23 100 -34t106 -11q113 0 196 66.5t153 230.5l452 1081h-110l-377 -933l-434 933h-117z" />
<glyph unicode="z" horiz-adv-x="1134" d="M119 0h903v90h-754l754 897v57h-875v-90h725l-753 -897v-57z" />
<glyph unicode="{" horiz-adv-x="983" d="M121 549h53q72 0 120 -18.5t75.5 -52.5t39 -82t11.5 -107v-162q0 -80 16.5 -145.5t62.5 -116.5t131 -89t222 -65l14 66q-117 31 -186.5 61.5t-104 71.5t-45 96t-10.5 133v154q0 68 -14 117t-41 82.5t-67 56t-91 39.5q49 14 88 36.5t66.5 57.5t43 84t15.5 117v153 q0 78 10.5 133.5t45 96.5t104 71.5t186.5 61.5l-14 65q-137 -27 -222 -64.5t-131 -88.5t-62.5 -117t-16.5 -145v-162q0 -59 -11.5 -107.5t-39 -82t-75.5 -52t-120 -18.5h-53v-78z" />
<glyph unicode="|" horiz-adv-x="585" d="M248 -262h90v1896h-90v-1896z" />
<glyph unicode="}" horiz-adv-x="983" d="M117 -223l14 -66q137 27 222 65t131 89t62.5 116.5t16.5 145.5v162q0 59 11.5 107t39 82t75.5 52.5t120 18.5h53v78h-53q-72 0 -120 18.5t-75.5 52t-39 81.5t-11.5 108v162q0 80 -16.5 145.5t-62.5 116.5t-131 89t-222 64l-14 -65q117 -31 186.5 -61.5t104 -71.5 t45 -96.5t10.5 -133.5v-153q0 -68 14.5 -117t41 -83t66.5 -56.5t91 -38.5q-49 -14 -88 -37t-66.5 -57.5t-43 -84t-15.5 -116.5v-154q0 -78 -10.5 -133t-45 -96t-104 -71.5t-186.5 -61.5z" />
<glyph unicode="~" horiz-adv-x="942" d="M168 514l70 -18q23 59 44 80.5t58 21.5q27 0 59.5 -13.5t68.5 -28.5t70.5 -28.5t63.5 -13.5q61 0 102 40t70 151l-69 18q-23 -59 -44.5 -80.5t-58.5 -21.5q-27 0 -59.5 13t-68.5 28.5t-70.5 29t-63.5 13.5q-61 0 -102 -40t-70 -151z" />
<glyph unicode="&#xa1;" horiz-adv-x="516" d="M190 1260h136v174h-136v-174zM199 0h118v143l-30 916h-58l-30 -916v-143z" />
<glyph unicode="&#xa2;" horiz-adv-x="1189" d="M127 725q0 -88 25.5 -169t72.5 -148.5t112.5 -118.5t145.5 -78l-45 -223h103l39 198q39 -6 79 -6q143 0 244.5 58.5t181.5 148.5l-69 62q-66 -74 -153 -124.5t-197 -50.5q-39 0 -72 7l170 886q76 -20 132 -63t110 -96l71 73q-57 59 -124.5 108.5t-164.5 70.5l37 186h-102 l-33 -172h-31q-113 0 -210 -44t-168.5 -120t-112.5 -175t-41 -210zM236 729q0 94 32.5 176t89 143.5t133 96.5t166.5 35h19l-168 -875q-121 51 -196.5 164t-75.5 260z" />
<glyph unicode="&#xa3;" horiz-adv-x="1318" d="M143 0h1047v96h-766v529h610v98h-610v244q0 180 86 285.5t248 105.5q63 0 114.5 -14.5t93.5 -39t76.5 -58.5t65.5 -72l82 63q-35 45 -77 85t-94 69.5t-115.5 46t-143.5 16.5q-104 0 -185 -36t-138.5 -101.5t-87.5 -155.5t-30 -196v-242h-176v-98h176v-533l-176 -41v-51z " />
<glyph unicode="&#xa4;" horiz-adv-x="1474" d="M121 502h184q27 -117 79 -214.5t127 -167t167 -107.5t199 -38q86 0 155.5 24t128 65.5t107.5 97t90 119.5l-78 51q-76 -117 -170 -189.5t-227 -72.5q-86 0 -161 31.5t-135.5 88t-104.5 136.5t-68 176h585v98h-604q-6 57 -6 119q0 35 3 67.5t7 65.5h600v98h-581 q25 90 67.5 166t100 131.5t126 86t146.5 30.5q74 0 131.5 -16.5t106.5 -48t92 -77.5t84 -106l82 55q-41 61 -89 113.5t-107.5 91.5t-132.5 60.5t-163 21.5q-98 0 -186 -38t-160 -105.5t-124 -160.5t-79 -204h-192v-98h174q-4 -35 -7 -68.5t-3 -68.5q0 -59 6 -115h-170v-98z " />
<glyph unicode="&#xa5;" horiz-adv-x="1404" d="M66 1434l548 -793h-399v-92h436v-201h-436v-92h436v-256h103v256h436v92h-436v201h436v92h-402l551 793h-122l-512 -764l-510 764h-129z" />
<glyph unicode="&#xa7;" horiz-adv-x="1294" d="M133 745q0 -51 21.5 -92t70.5 -74.5t128 -63.5t194 -56q104 -25 176 -50.5t116 -51t63.5 -55.5t19.5 -62q0 -68 -57.5 -114t-180.5 -46t-224.5 48t-172.5 120l-78 -74q86 -86 207 -140t258 -54q164 0 262 70.5t98 187.5q0 72 -48 127t-128 90q139 16 221 78.5t82 154.5 q0 51 -21.5 92t-70.5 75t-128 62.5t-193 57.5q-104 25 -176 50.5t-116 51t-63.5 54t-19.5 63.5q0 68 57 114t180 46t224.5 -48.5t173.5 -119.5l77 74q-86 86 -206.5 140t-257.5 54q-164 0 -262.5 -70.5t-98.5 -187.5q0 -72 48 -127t128 -90q-139 -16 -221 -78.5t-82 -155.5z M240 754q0 63 71.5 112t192.5 49q43 0 98 -7t131 -25q96 -25 158.5 -48.5t98.5 -48t50.5 -51t14.5 -55.5q0 -63 -72 -112.5t-192 -49.5q-43 0 -99.5 7t-130.5 26q-96 25 -158.5 48.5t-98.5 48t-50 51t-14 55.5z" />
<glyph unicode="&#xa8;" horiz-adv-x="1024" d="M274 1219h142v163h-142v-163zM608 1219h142v163h-142v-163z" />
<glyph unicode="&#xa9;" horiz-adv-x="1699" d="M109 715q0 -152 57 -287t156.5 -235.5t234.5 -159t291 -58.5t292 59.5t236.5 161t157.5 236.5t57 287t-57 287t-156.5 235t-234.5 158.5t-291 58.5t-292 -59.5t-236.5 -160.5t-157.5 -236.5t-57 -286.5zM170 715q0 141 52 266t143.5 218t216.5 147.5t270 54.5t269 -53.5 t215 -146.5t142.5 -217t51.5 -265t-52.5 -266t-143.5 -218.5t-216 -147.5t-270 -54t-269 53t-215.5 146.5t-142.5 217t-51 265.5zM485 727q0 -80 29 -150.5t79 -123t117.5 -83t147.5 -30.5q100 0 168 36t127 95l-57 57q-53 -51 -106.5 -78.5t-129.5 -27.5q-59 0 -111.5 24.5 t-90 66.5t-60.5 97.5t-23 118.5t20.5 118.5t58.5 96.5t90.5 65.5t113.5 24.5q72 0 128 -31.5t101 -74.5l62 63q-57 53 -122.5 89t-166.5 36q-80 0 -148.5 -30.5t-118.5 -84t-79 -124t-29 -150.5z" />
<glyph unicode="&#xaa;" horiz-adv-x="798" d="M127 600h516v82h-516v-82zM133 1028q0 -47 19.5 -82t51.5 -58.5t71.5 -34.5t80.5 -11q66 0 116 25.5t85 70.5v-84h76v356q0 115 -64.5 172.5t-177.5 57.5q-59 0 -108.5 -14.5t-102.5 -39.5l27 -69q47 23 89 36t91 13q78 0 124 -40t46 -118v-10q-35 10 -75 16.5t-95 6.5 q-115 0 -184.5 -50.5t-69.5 -142.5zM215 1032q0 53 43 86t125 33q57 0 98 -6t76 -17v-55q0 -35 -16.5 -64.5t-43 -50t-62.5 -32t-75 -11.5q-59 0 -102 30t-43 87z" />
<glyph unicode="&#xab;" horiz-adv-x="1054" d="M104 514l328 -428l76 49l-281 389l281 385l-76 49l-328 -428v-16zM522 514l328 -428l76 49l-281 389l281 385l-76 49l-328 -428v-16z" />
<glyph unicode="&#xad;" horiz-adv-x="835" d="M143 551h549v115h-549v-115z" />
<glyph unicode="&#xae;" horiz-adv-x="1699" d="M109 715q0 -152 57 -287t156.5 -235.5t234.5 -159t291 -58.5t292 59.5t236.5 161t157.5 236.5t57 287t-57 287t-156.5 235t-234.5 158.5t-291 58.5t-292 -59.5t-236.5 -160.5t-157.5 -236.5t-57 -286.5zM170 715q0 141 52 266t143.5 218t216.5 147.5t270 54.5t269 -53.5 t215 -146.5t142.5 -217t51.5 -265t-52.5 -266t-143.5 -218.5t-216 -147.5t-270 -54t-269 53t-215.5 146.5t-142.5 217t-51 265.5zM565 362h88v302h217l238 -302h115l-250 316q92 16 148.5 70.5t56.5 146.5q0 100 -78 158.5t-199 58.5h-336v-750zM653 745v283h244 q88 0 138 -35.5t50 -101.5q0 -72 -56 -109t-142 -37h-234z" />
<glyph unicode="&#xaf;" horiz-adv-x="1024" d="M205 1229h614v108h-614v-108z" />
<glyph unicode="&#xb0;" horiz-adv-x="921" d="M152 1145q0 -61 25.5 -115.5t68.5 -95.5t98 -65.5t117 -24.5q61 0 116.5 24.5t98.5 65.5t68.5 95.5t25.5 115.5t-25.5 115.5t-68.5 95.5t-98.5 65.5t-116.5 24.5t-116.5 -24.5t-98.5 -65.5t-68.5 -95.5t-25.5 -115.5zM254 1145q0 41 15.5 79t43 67.5t65.5 47t83 17.5 t83 -17.5t65.5 -47t43 -67.5t15.5 -79t-15.5 -80t-43 -67.5t-65.5 -46t-83 -17.5t-83 17.5t-65.5 46t-43 67.5t-15.5 80z" />
<glyph unicode="&#xb1;" horiz-adv-x="1228" d="M92 240q86 -115 220 -190t309 -75q104 0 192 32t151.5 86t99.5 128t36 158q0 72 -23.5 129t-65.5 100t-99.5 75t-123.5 50q49 16 98.5 44t88.5 70t62.5 98t23.5 130q0 82 -34 152.5t-94.5 122t-142 80t-180.5 28.5q-166 0 -284.5 -72.5t-200.5 -193.5l82 -49 q78 106 173 162.5t226 56.5q78 0 141.5 -21.5t108.5 -60.5t69.5 -92t24.5 -117q0 -72 -29.5 -128t-81 -94t-121 -58.5t-151.5 -20.5h-145v-94h143q203 0 313.5 -79t110.5 -220q0 -70 -27.5 -126t-76.5 -96t-116 -61.5t-144 -21.5q-145 0 -256 62.5t-191 168.5z" />
<glyph unicode="&#xb4;" horiz-adv-x="1024" d="M397 1219h86l219 211l-124 61z" />
<glyph unicode="&#xb5;" horiz-adv-x="1740" d="M150 715q0 -147 51 -281.5t145 -236t226.5 -162t295.5 -60.5q98 0 185.5 22.5t165.5 63.5l290 -268h154v8l-348 328q131 104 203.5 259t72.5 331q0 147 -51 281.5t-145.5 235.5t-227.5 161.5t-295 60.5q-164 0 -297 -60.5t-227 -164t-146 -237.5t-52 -281zM260 719 q0 133 45 250.5t126 205t192.5 137.5t244.5 50t246 -51t194 -139.5t127 -206t46 -250.5t-45 -251t-126 -205t-192.5 -137t-245.5 -50q-133 0 -245.5 51t-193.5 139t-127 206t-46 251z" />
<glyph unicode="&#xb6;" horiz-adv-x="983" d="M109 1001q0 -104 43 -185t118.5 -136t178 -84t221.5 -29h12v-567h109v1434h-152q-117 0 -214 -30t-168 -85t-109.5 -136t-38.5 -182z" />
<glyph unicode="&#xb7;" horiz-adv-x="471" d="M168 522h135v174h-135v-174z" />
<glyph unicode="&#xb8;" horiz-adv-x="1024" d="M332 -250l112 -53l160 323h-88z" />
<glyph unicode="&#xba;" horiz-adv-x="798" d="M104 600h590v82h-590v-82zM104 1141q0 -61 21.5 -115.5t60.5 -95.5t93.5 -64.5t117.5 -23.5t118.5 24.5t94.5 65.5t61.5 96.5t22.5 116.5t-21.5 115.5t-60.5 95.5t-93 64.5t-118 23.5q-66 0 -120 -24.5t-92.5 -65.5t-61.5 -96.5t-23 -116.5zM193 1145q0 92 56 155.5 t148 63.5q90 0 149.5 -64.5t59.5 -158.5q0 -92 -56 -155.5t-149 -63.5q-90 0 -149 64.5t-59 158.5z" />
<glyph unicode="&#xbb;" horiz-adv-x="1054" d="M129 135l76 -49l327 428v16l-327 428l-76 -49l281 -389zM547 135l76 -49l327 428v16l-327 428l-76 -49l280 -389z" />
<glyph unicode="&#xbf;" horiz-adv-x="1093" d="M106 383q0 -84 32 -156.5t89.5 -127t139.5 -86t184 -31.5q82 0 149.5 17t125 50t106.5 77t92 99l-74 62q-80 -98 -176 -154.5t-219 -56.5q-78 0 -141.5 24.5t-107.5 67.5t-67.5 99.5t-23.5 119.5q0 150 110.5 238t315.5 92l10 10l-26 332h-66l-18 -256q-90 -10 -169 -41 t-137.5 -83t-93.5 -126t-35 -170zM524 1260h135v174h-135v-174z" />
<glyph unicode="&#xc0;" horiz-adv-x="1617" d="M90 0h111l182 401h846l182 -401h117l-668 1444h-102zM428 498l379 829l377 -829h-756zM539 1778l219 -211h86l-181 272z" />
<glyph unicode="&#xc1;" horiz-adv-x="1617" d="M90 0h111l182 401h846l182 -401h117l-668 1444h-102zM428 498l379 829l377 -829h-756zM774 1567h86l219 211l-124 61z" />
<glyph unicode="&#xc2;" horiz-adv-x="1617" d="M90 0h111l182 401h846l182 -401h117l-668 1444h-102zM428 498l379 829l377 -829h-756zM563 1557h92l152 139l152 -139h96l-205 249h-82z" />
<glyph unicode="&#xc3;" horiz-adv-x="1617" d="M90 0h111l182 401h846l182 -401h117l-668 1444h-102zM428 498l379 829l377 -829h-756zM506 1567l70 -19q23 59 44 81t58 22q27 0 59.5 -13.5t68.5 -29t70.5 -28.5t63.5 -13q61 0 102 39.5t70 150.5l-70 18q-23 -59 -44 -80.5t-58 -21.5q-27 0 -59.5 13.5t-68.5 28.5 t-70.5 28.5t-63.5 13.5q-61 0 -102 -40t-70 -150z" />
<glyph unicode="&#xc4;" horiz-adv-x="1617" d="M90 0h111l182 401h846l182 -401h117l-668 1444h-102zM428 498l379 829l377 -829h-756zM571 1567h142v163h-142v-163zM905 1567h142v163h-142v-163z" />
<glyph unicode="&#xc5;" horiz-adv-x="1617" d="M90 0h111l182 401h846l182 -401h117l-641 1389q53 23 88 69.5t35 106.5q0 39 -16.5 74.5t-44 61t-64.5 41t-76 15.5q-41 0 -77 -15.5t-63.5 -41t-44 -61t-16.5 -74.5q0 -59 35 -106t88 -70zM428 498l379 829l377 -829h-756zM682 1565q0 53 37 90t90 37t90 -37t37 -90 t-37 -90t-90 -37t-90 36.5t-37 90.5z" />
<glyph unicode="&#xc6;" horiz-adv-x="2140" d="M41 0h115l241 401h615v-401h999v98h-893v576h791v98h-791v563h883v99h-1092zM455 498l503 839h54v-839h-557z" />
<glyph unicode="&#xc7;" horiz-adv-x="1511" d="M150 715q0 -147 48 -275.5t134 -226.5t204 -161t259 -75l-156 -227l113 -53l137 278q90 2 165.5 21.5t141.5 52.5t123 78t113 98l-72 70q-109 -109 -223.5 -166t-270.5 -57q-129 0 -239.5 50t-191.5 137t-128 205t-47 255t46 255t127 204t191.5 135t239.5 49 q80 0 148.5 -16.5t127 -44t109.5 -66.5t99 -84l75 78q-55 51 -113.5 93t-125 72.5t-144 47t-174.5 16.5q-156 0 -286.5 -58.5t-226 -159.5t-149.5 -236.5t-54 -288.5z" />
<glyph unicode="&#xc8;" horiz-adv-x="1372" d="M213 0h1030v98h-924v576h822v98h-822v563h914v99h-1020v-1434zM496 1778l219 -211h86l-181 272z" />
<glyph unicode="&#xc9;" horiz-adv-x="1372" d="M213 0h1030v98h-924v576h822v98h-822v563h914v99h-1020v-1434zM633 1567h86l219 211l-124 61z" />
<glyph unicode="&#xca;" horiz-adv-x="1372" d="M213 0h1030v98h-924v576h822v98h-822v563h914v99h-1020v-1434zM469 1567h92l152 139l152 -139h96l-205 249h-82z" />
<glyph unicode="&#xcb;" horiz-adv-x="1372" d="M213 0h1030v98h-924v576h822v98h-822v563h914v99h-1020v-1434zM477 1567h142v163h-142v-163zM811 1567h142v163h-142v-163z" />
<glyph unicode="&#xcc;" horiz-adv-x="561" d="M227 0h107v1434h-107v-1434zM230 1778l219 -211h86l-181 272z" />
<glyph unicode="&#xcd;" horiz-adv-x="561" d="M227 0h107v1434h-107v-1434zM243 1567h86l219 211l-124 61z" />
<glyph unicode="&#xce;" horiz-adv-x="561" d="M227 0h107v1434h-107v-1434zM229 1567h92l152 139l152 -139h96l-205 249h-82z" />
<glyph unicode="&#xcf;" horiz-adv-x="561" d="M227 0h107v1434h-107v-1434zM229 1567h142v163h-142v-163zM563 1567h142v163h-142v-163z" />
<glyph unicode="&#xd0;" horiz-adv-x="1662" d="M121 672h153v-672h478q168 0 308 55.5t241.5 151.5t156.5 228t55 284t-55 283t-156.5 227t-241.5 150.5t-308 54.5h-478v-664h-153v-98zM381 98v574h475v98h-475v565h371q150 0 270.5 -48t204.5 -133t130 -197.5t46 -241.5t-46 -242t-130 -195.5t-205 -131t-270 -48.5 h-371z" />
<glyph unicode="&#xd1;" horiz-adv-x="1617" d="M213 0h102v1274l1010 -1274h80v1434h-102v-1248l-990 1248h-100v-1434zM506 1567l70 -19q23 59 44 81t58 22q27 0 59.5 -13.5t68.5 -29t70.5 -28.5t63.5 -13q61 0 102 39.5t70 150.5l-70 18q-23 -59 -44 -80.5t-58 -21.5q-27 0 -59.5 13.5t-68.5 28.5t-70.5 28.5 t-63.5 13.5q-61 0 -102 -40t-70 -150z" />
<glyph unicode="&#xd2;" horiz-adv-x="1740" d="M150 713q0 -147 51 -280.5t145 -235t226.5 -162t295.5 -60.5q162 0 296 60.5t228.5 163t146.5 237t52 281.5q2 2 0 4q0 147 -51 280.5t-145.5 234.5t-227.5 161.5t-295 60.5q-164 0 -297 -60.5t-227 -162.5t-146 -236.5t-52 -281.5v-4zM260 717v4q0 133 45 249.5t126 204 t192.5 137.5t244.5 50t246 -51t194 -138.5t127 -205t46 -250.5v-4q0 -133 -45 -250t-126 -204t-192.5 -137t-245.5 -50q-133 0 -245.5 51t-193.5 138t-127 205t-46 251zM598 1778l219 -211h86l-181 272z" />
<glyph unicode="&#xd3;" horiz-adv-x="1740" d="M150 713q0 -147 51 -280.5t145 -235t226.5 -162t295.5 -60.5q162 0 296 60.5t228.5 163t146.5 237t52 281.5q2 2 0 4q0 147 -51 280.5t-145.5 234.5t-227.5 161.5t-295 60.5q-164 0 -297 -60.5t-227 -162.5t-146 -236.5t-52 -281.5v-4zM260 717v4q0 133 45 249.5t126 204 t192.5 137.5t244.5 50t246 -51t194 -138.5t127 -205t46 -250.5v-4q0 -133 -45 -250t-126 -204t-192.5 -137t-245.5 -50q-133 0 -245.5 51t-193.5 138t-127 205t-46 251zM837 1567h86l219 211l-124 61z" />
<glyph unicode="&#xd4;" horiz-adv-x="1740" d="M150 713q0 -147 51 -280.5t145 -235t226.5 -162t295.5 -60.5q162 0 296 60.5t228.5 163t146.5 237t52 281.5q2 2 0 4q0 147 -51 280.5t-145.5 234.5t-227.5 161.5t-295 60.5q-164 0 -297 -60.5t-227 -162.5t-146 -236.5t-52 -281.5v-4zM260 717v4q0 133 45 249.5t126 204 t192.5 137.5t244.5 50t246 -51t194 -138.5t127 -205t46 -250.5v-4q0 -133 -45 -250t-126 -204t-192.5 -137t-245.5 -50q-133 0 -245.5 51t-193.5 138t-127 205t-46 251zM624 1567h92l152 139l152 -139h96l-205 249h-82z" />
<glyph unicode="&#xd5;" horiz-adv-x="1740" d="M150 713q0 -147 51 -280.5t145 -235t226.5 -162t295.5 -60.5q162 0 296 60.5t228.5 163t146.5 237t52 281.5q2 2 0 4q0 147 -51 280.5t-145.5 234.5t-227.5 161.5t-295 60.5q-164 0 -297 -60.5t-227 -162.5t-146 -236.5t-52 -281.5v-4zM260 717v4q0 133 45 249.5t126 204 t192.5 137.5t244.5 50t246 -51t194 -138.5t127 -205t46 -250.5v-4q0 -133 -45 -250t-126 -204t-192.5 -137t-245.5 -50q-133 0 -245.5 51t-193.5 138t-127 205t-46 251zM567 1567l70 -19q23 59 44 81t58 22q27 0 59.5 -13.5t68.5 -29t70.5 -28.5t63.5 -13q61 0 102 39.5 t70 150.5l-70 18q-23 -59 -44 -80.5t-58 -21.5q-27 0 -59.5 13.5t-68.5 28.5t-70.5 28.5t-63.5 13.5q-61 0 -102 -40t-70 -150z" />
<glyph unicode="&#xd6;" horiz-adv-x="1740" d="M150 713q0 -147 51 -280.5t145 -235t226.5 -162t295.5 -60.5q162 0 296 60.5t228.5 163t146.5 237t52 281.5q2 2 0 4q0 147 -51 280.5t-145.5 234.5t-227.5 161.5t-295 60.5q-164 0 -297 -60.5t-227 -162.5t-146 -236.5t-52 -281.5v-4zM260 717v4q0 133 45 249.5t126 204 t192.5 137.5t244.5 50t246 -51t194 -138.5t127 -205t46 -250.5v-4q0 -133 -45 -250t-126 -204t-192.5 -137t-245.5 -50q-133 0 -245.5 51t-193.5 138t-127 205t-46 251zM632 1567h142v163h-142v-163zM966 1567h142v163h-142v-163z" />
<glyph unicode="&#xd8;" horiz-adv-x="1740" d="M133 -10h123l145 155q92 -80 209 -125t258 -45q162 0 296 60.5t228.5 164t146.5 238t52 281.5q0 143 -48 274t-140 232l205 219h-123l-146 -156q-92 80 -208.5 125t-258.5 45q-164 0 -297 -60.5t-227 -164t-146 -237.5t-52 -281q0 -143 48 -274.5t140 -233.5zM258 719 q0 135 45 251.5t126 205t193.5 138.5t245.5 50q121 0 223.5 -41t180.5 -113l-862 -925q-72 88 -112 198.5t-40 235.5zM469 223l862 926q72 -88 112 -198.5t40 -235.5q0 -135 -45 -252t-126 -205t-193.5 -138t-246.5 -50q-121 0 -223 41t-180 112z" />
<glyph unicode="&#xd9;" horiz-adv-x="1556" d="M190 596q0 -152 43 -266.5t122 -193.5t186.5 -119t236.5 -40q131 0 238.5 41t185.5 121t121 197.5t43 271.5v826h-106v-838q0 -129 -34 -227.5t-96.5 -164t-150.5 -98t-197 -32.5q-229 0 -357 138t-128 394v828h-107v-838zM525 1768l219 -211h86l-181 272z" />
<glyph unicode="&#xda;" horiz-adv-x="1556" d="M190 596q0 -152 43 -266.5t122 -193.5t186.5 -119t236.5 -40q131 0 238.5 41t185.5 121t121 197.5t43 271.5v826h-106v-838q0 -129 -34 -227.5t-96.5 -164t-150.5 -98t-197 -32.5q-229 0 -357 138t-128 394v828h-107v-838zM727 1557h86l219 211l-124 61z" />
<glyph unicode="&#xdb;" horiz-adv-x="1556" d="M190 596q0 -152 43 -266.5t122 -193.5t186.5 -119t236.5 -40q131 0 238.5 41t185.5 121t121 197.5t43 271.5v826h-106v-838q0 -129 -34 -227.5t-96.5 -164t-150.5 -98t-197 -32.5q-229 0 -357 138t-128 394v828h-107v-838zM532 1557h92l152 139l152 -139h96l-205 249h-82 z" />
<glyph unicode="&#xdc;" horiz-adv-x="1556" d="M190 596q0 -152 43 -266.5t122 -193.5t186.5 -119t236.5 -40q131 0 238.5 41t185.5 121t121 197.5t43 271.5v826h-106v-838q0 -129 -34 -227.5t-96.5 -164t-150.5 -98t-197 -32.5q-229 0 -357 138t-128 394v828h-107v-838zM540 1557h142v163h-142v-163zM874 1557h142v163 h-142v-163z" />
<glyph unicode="&#xdd;" horiz-adv-x="1466" d="M66 1434l614 -867v-567h106v569l615 865h-127l-539 -770l-536 770h-133zM696 1557h86l219 211l-124 61z" />
<glyph unicode="&#xde;" horiz-adv-x="1378" d="M213 0h106v272h388q113 0 214 30t178 87t122 143t45 201q0 104 -39 186t-109.5 138.5t-168 86.5t-216.5 30h-414v260h-106v-1434zM319 371v704h406q96 0 176 -22.5t137.5 -65.5t89 -108.5t31.5 -151.5q0 -80 -32.5 -146.5t-91 -112.5t-140.5 -71.5t-182 -25.5h-394z" />
<glyph unicode="&#xdf;" horiz-adv-x="1269" d="M190 0h101v1024q0 90 25.5 163t71.5 123t109.5 77.5t137.5 27.5q68 0 124 -20.5t96 -56t62.5 -85t22.5 -108.5q0 -72 -26.5 -128t-72.5 -100.5t-109.5 -77t-139.5 -55.5v-84q203 -23 321.5 -99.5t118.5 -215.5q0 -145 -118.5 -221t-321.5 -80v-88q127 0 228.5 26.5 t173 77t109.5 124t38 165.5q0 84 -35 146.5t-92.5 107.5t-132 72.5t-154.5 42.5q59 20 117.5 56t103.5 85t73 111.5t28 138.5t-29 141.5t-83 114.5t-129 76.5t-167 27.5q-104 0 -187 -35.5t-141.5 -100t-90.5 -154t-32 -195.5v-1024z" />
<glyph unicode="&#xe0;" horiz-adv-x="1175" d="M104 303q0 -82 36 -143.5t93.5 -102.5t129 -61.5t145.5 -20.5t136.5 17.5t111.5 45.5t87 63.5t64 72.5v-174h99v651q0 205 -117 307.5t-320 102.5q-109 0 -196.5 -24.5t-173.5 -65.5l37 -88q72 37 151.5 60.5t175.5 23.5q162 0 253 -80t91 -240v-45q-76 20 -155.5 32.5 t-190.5 12.5q-102 0 -186 -22.5t-143.5 -65.5t-93.5 -106.5t-34 -145.5v-4zM211 309v4q0 111 89 177.5t255 66.5q113 0 201 -15.5t153 -31.5v-119q0 -72 -31.5 -131t-86 -101t-126 -65.5t-151.5 -23.5q-59 0 -114.5 16t-97.5 47t-66.5 75t-24.5 101zM322 1430l219 -211h86 l-181 272z" />
<glyph unicode="&#xe1;" horiz-adv-x="1175" d="M104 303q0 -82 36 -143.5t93.5 -102.5t129 -61.5t145.5 -20.5t136.5 17.5t111.5 45.5t87 63.5t64 72.5v-174h99v651q0 205 -117 307.5t-320 102.5q-109 0 -196.5 -24.5t-173.5 -65.5l37 -88q72 37 151.5 60.5t175.5 23.5q162 0 253 -80t91 -240v-45q-76 20 -155.5 32.5 t-190.5 12.5q-102 0 -186 -22.5t-143.5 -65.5t-93.5 -106.5t-34 -145.5v-4zM211 309v4q0 111 89 177.5t255 66.5q113 0 201 -15.5t153 -31.5v-119q0 -72 -31.5 -131t-86 -101t-126 -65.5t-151.5 -23.5q-59 0 -114.5 16t-97.5 47t-66.5 75t-24.5 101zM524 1219h86l219 211 l-124 61z" />
<glyph unicode="&#xe2;" horiz-adv-x="1175" d="M104 303q0 -82 36 -143.5t93.5 -102.5t129 -61.5t145.5 -20.5t136.5 17.5t111.5 45.5t87 63.5t64 72.5v-174h99v651q0 205 -117 307.5t-320 102.5q-109 0 -196.5 -24.5t-173.5 -65.5l37 -88q72 37 151.5 60.5t175.5 23.5q162 0 253 -80t91 -240v-45q-76 20 -155.5 32.5 t-190.5 12.5q-102 0 -186 -22.5t-143.5 -65.5t-93.5 -106.5t-34 -145.5v-4zM211 309v4q0 111 89 177.5t255 66.5q113 0 201 -15.5t153 -31.5v-119q0 -72 -31.5 -131t-86 -101t-126 -65.5t-151.5 -23.5q-59 0 -114.5 16t-97.5 47t-66.5 75t-24.5 101zM348 1219h92l152 139 l152 -139h96l-205 249h-82z" />
<glyph unicode="&#xe3;" horiz-adv-x="1175" d="M104 303q0 -82 36 -143.5t93.5 -102.5t129 -61.5t145.5 -20.5t136.5 17.5t111.5 45.5t87 63.5t64 72.5v-174h99v651q0 205 -117 307.5t-320 102.5q-109 0 -196.5 -24.5t-173.5 -65.5l37 -88q72 37 151.5 60.5t175.5 23.5q162 0 253 -80t91 -240v-45q-76 20 -155.5 32.5 t-190.5 12.5q-102 0 -186 -22.5t-143.5 -65.5t-93.5 -106.5t-34 -145.5v-4zM211 309v4q0 111 89 177.5t255 66.5q113 0 201 -15.5t153 -31.5v-119q0 -72 -31.5 -131t-86 -101t-126 -65.5t-151.5 -23.5q-59 0 -114.5 16t-97.5 47t-66.5 75t-24.5 101zM291 1219l70 -19 q23 59 44 81t58 22q27 0 59.5 -13.5t68.5 -29t70.5 -28.5t63.5 -13q61 0 102 39.5t70 150.5l-70 18q-23 -59 -44 -80.5t-58 -21.5q-27 0 -59.5 13.5t-68.5 28.5t-70.5 28.5t-63.5 13.5q-61 0 -102 -40t-70 -150z" />
<glyph unicode="&#xe4;" horiz-adv-x="1175" d="M104 303q0 -82 36 -143.5t93.5 -102.5t129 -61.5t145.5 -20.5t136.5 17.5t111.5 45.5t87 63.5t64 72.5v-174h99v651q0 205 -117 307.5t-320 102.5q-109 0 -196.5 -24.5t-173.5 -65.5l37 -88q72 37 151.5 60.5t175.5 23.5q162 0 253 -80t91 -240v-45q-76 20 -155.5 32.5 t-190.5 12.5q-102 0 -186 -22.5t-143.5 -65.5t-93.5 -106.5t-34 -145.5v-4zM211 309v4q0 111 89 177.5t255 66.5q113 0 201 -15.5t153 -31.5v-119q0 -72 -31.5 -131t-86 -101t-126 -65.5t-151.5 -23.5q-59 0 -114.5 16t-97.5 47t-66.5 75t-24.5 101zM356 1219h142v163h-142 v-163zM690 1219h142v163h-142v-163z" />
<glyph unicode="&#xe5;" horiz-adv-x="1175" d="M104 303q0 -82 36 -143.5t93.5 -102.5t129 -61.5t145.5 -20.5t136.5 17.5t111.5 45.5t87 63.5t64 72.5v-174h99v651q0 205 -117 307.5t-320 102.5q-109 0 -196.5 -24.5t-173.5 -65.5l37 -88q72 37 151.5 60.5t175.5 23.5q162 0 253 -80t91 -240v-45q-76 20 -155.5 32.5 t-190.5 12.5q-102 0 -186 -22.5t-143.5 -65.5t-93.5 -106.5t-34 -145.5v-4zM211 309v4q0 111 89 177.5t255 66.5q113 0 201 -15.5t153 -31.5v-119q0 -72 -31.5 -131t-86 -101t-126 -65.5t-151.5 -23.5q-59 0 -114.5 16t-97.5 47t-66.5 75t-24.5 101zM393 1407 q0 -41 16.5 -76t44 -60.5t63.5 -41t77 -15.5q39 0 76 15.5t64.5 41t44 60.5t16.5 76q0 39 -16.5 75t-44 61.5t-64.5 40.5t-76 15q-41 0 -77 -15t-63.5 -40.5t-44 -61.5t-16.5 -75zM467 1407q0 53 37 90t90 37t90 -37t37 -90t-37 -90t-90 -37t-90 37t-37 90z" />
<glyph unicode="&#xe6;" horiz-adv-x="1953" d="M104 305q0 -82 35 -143.5t90.5 -103.5t126 -62.5t142.5 -20.5q156 0 271.5 68t197.5 162q70 -109 181.5 -169.5t240.5 -60.5q150 0 251 55.5t181 141.5l-70 61q-66 -70 -150.5 -116.5t-207.5 -46.5q-76 0 -146.5 27.5t-127 80.5t-93.5 129t-43 174h866q2 12 2 21v18 q0 117 -33.5 217.5t-96 174t-150.5 115.5t-199 42q-139 0 -249.5 -73.5t-172.5 -196.5q-35 131 -137 196.5t-258 65.5q-104 0 -186 -24.5t-170 -65.5l37 -88q72 37 146.5 60.5t166.5 23.5q158 0 244 -80t86 -240v-45q-76 20 -151 32.5t-177 12.5q-98 0 -180 -22.5 t-141.5 -66.5t-92.5 -107.5t-33 -145.5zM211 311q0 111 86 178.5t248 67.5q100 0 183 -14.5t149 -30.5q2 -61 13 -116.5t32 -106.5q-76 -94 -179.5 -156.5t-238.5 -62.5q-59 0 -112.5 16t-93.5 47t-63.5 76t-23.5 102zM983 571q6 86 39 161t83 129t117.5 85t145.5 31 q90 0 157.5 -34t114 -90t72 -129t31.5 -153h-760z" />
<glyph unicode="&#xe7;" horiz-adv-x="1169" d="M119 520q0 -102 34.5 -194.5t96 -165t147 -120.5t185.5 -60l-156 -230l113 -53l137 278q135 6 229 63.5t172 143.5l-69 62q-66 -74 -153 -124t-198 -50q-90 0 -167.5 34.5t-136 96t-92.5 144.5t-34 179q0 94 33 176t89.5 143.5t133 96.5t166.5 35q117 0 199 -51.5 t149 -120.5l72 74q-37 39 -79 73.5t-93 61t-111.5 42t-134.5 15.5q-113 0 -210 -44t-168.5 -120t-112.5 -175t-41 -210z" />
<glyph unicode="&#xe8;" horiz-adv-x="1196" d="M119 520q0 -123 41 -223t111.5 -172t163.5 -111t196 -39q150 0 251 55.5t181 141.5l-70 61q-66 -70 -150.5 -116.5t-207.5 -46.5q-78 0 -148.5 27.5t-126 80.5t-92.5 129t-43 174h867q2 12 2 19v18v4q0 117 -34 216.5t-96.5 173t-150.5 115.5t-199 42q-106 0 -196 -43 t-156.5 -116.5t-104.5 -173t-38 -212.5v-4zM225 571q6 86 39 161t83 129t117.5 85t145.5 31q90 0 158 -34t114 -90t71.5 -129t31.5 -153h-760zM367 1430l219 -211h86l-181 272z" />
<glyph unicode="&#xe9;" horiz-adv-x="1196" d="M119 520q0 -123 41 -223t111.5 -172t163.5 -111t196 -39q150 0 251 55.5t181 141.5l-70 61q-66 -70 -150.5 -116.5t-207.5 -46.5q-78 0 -148.5 27.5t-126 80.5t-92.5 129t-43 174h867q2 12 2 19v18v4q0 117 -34 216.5t-96.5 173t-150.5 115.5t-199 42q-106 0 -196 -43 t-156.5 -116.5t-104.5 -173t-38 -212.5v-4zM225 571q6 86 39 161t83 129t117.5 85t145.5 31q90 0 158 -34t114 -90t71.5 -129t31.5 -153h-760zM526 1219h86l219 211l-124 61z" />
<glyph unicode="&#xea;" horiz-adv-x="1196" d="M119 520q0 -123 41 -223t111.5 -172t163.5 -111t196 -39q150 0 251 55.5t181 141.5l-70 61q-66 -70 -150.5 -116.5t-207.5 -46.5q-78 0 -148.5 27.5t-126 80.5t-92.5 129t-43 174h867q2 12 2 19v18v4q0 117 -34 216.5t-96.5 173t-150.5 115.5t-199 42q-106 0 -196 -43 t-156.5 -116.5t-104.5 -173t-38 -212.5v-4zM225 571q6 86 39 161t83 129t117.5 85t145.5 31q90 0 158 -34t114 -90t71.5 -129t31.5 -153h-760zM362 1219h92l152 139l152 -139h96l-205 249h-82z" />
<glyph unicode="&#xeb;" horiz-adv-x="1196" d="M119 520q0 -123 41 -223t111.5 -172t163.5 -111t196 -39q150 0 251 55.5t181 141.5l-70 61q-66 -70 -150.5 -116.5t-207.5 -46.5q-78 0 -148.5 27.5t-126 80.5t-92.5 129t-43 174h867q2 12 2 19v18v4q0 117 -34 216.5t-96.5 173t-150.5 115.5t-199 42q-106 0 -196 -43 t-156.5 -116.5t-104.5 -173t-38 -212.5v-4zM225 571q6 86 39 161t83 129t117.5 85t145.5 31q90 0 158 -34t114 -90t71.5 -129t31.5 -153h-760zM370 1219h142v163h-142v-163zM704 1219h142v163h-142v-163z" />
<glyph unicode="&#xec;" horiz-adv-x="509" d="M205 0h100v1044h-100v-1044zM207 1430l219 -211h86l-181 272z" />
<glyph unicode="&#xed;" horiz-adv-x="509" d="M205 0h100v1044h-100v-1044zM217 1219h86l219 211l-124 61z" />
<glyph unicode="&#xee;" horiz-adv-x="509" d="M205 0h100v1044h-100v-1044zM207 1219h92l152 139l152 -139h96l-205 249h-82z" />
<glyph unicode="&#xef;" horiz-adv-x="509" d="M205 0h100v1044h-100v-1044zM206 1219h142v163h-142v-163zM540 1219h142v163h-142v-163z" />
<glyph unicode="&#xf0;" horiz-adv-x="1286" d="M119 500q0 -106 39 -201.5t107.5 -167.5t162.5 -114t205 -42q121 0 219 43t166.5 117t106.5 170t38 203q0 74 -12 139.5t-35.5 124.5t-56.5 117.5t-74 118.5l-223 329l209 103l-58 73l-200 -102l-56 84h-129l93 -131l-281 -137l59 -74l273 139l301 -426q-68 53 -153 91 t-210 38q-96 0 -185 -35.5t-156.5 -100t-108.5 -157t-41 -202.5zM227 494q0 86 28 161.5t79 131t123.5 87t165.5 31.5q92 0 170.5 -32.5t137 -88t91.5 -129t33 -157.5q0 -86 -30 -163t-84 -136.5t-130 -94t-168 -34.5q-90 0 -167 35.5t-132 94t-86 135.5t-31 159z" />
<glyph unicode="&#xf1;" horiz-adv-x="1255" d="M190 0h101v604q0 82 27.5 150.5t76.5 118t114.5 77t143.5 27.5q160 0 246 -97.5t86 -258.5v-621h100v639q0 94 -27.5 173t-81.5 136.5t-132 89t-176 31.5q-143 0 -233.5 -63.5t-143.5 -155.5v194h-101v-1044zM334 1219l70 -19q23 59 44 81t58 22q27 0 59.5 -13.5 t68.5 -29t70.5 -28.5t63.5 -13q61 0 102 39.5t70 150.5l-70 18q-23 -59 -44 -80.5t-58 -21.5q-27 0 -59.5 13.5t-68.5 28.5t-70.5 28.5t-63.5 13.5q-61 0 -102 -40t-70 -150z" />
<glyph unicode="&#xf2;" d="M119 518q0 -111 40 -209t111.5 -172t169 -118t213.5 -44q117 0 215.5 44t171 120t112.5 174t40 209v4q0 111 -40 209.5t-111.5 172t-169 117.5t-214.5 44t-215 -44t-170.5 -120t-112.5 -174t-40 -209v-4zM227 522v4q0 92 32 174t88 142.5t135 96.5t171 36q90 0 169 -35 t137.5 -96.5t91 -144.5t32.5 -177v-4q0 -92 -31.5 -174t-88 -142.5t-135 -96t-171.5 -35.5q-90 0 -168.5 34.5t-137 96t-91.5 144.5t-33 177zM392 1430l219 -211h86l-181 272z" />
<glyph unicode="&#xf3;" d="M119 518q0 -111 40 -209t111.5 -172t169 -118t213.5 -44q117 0 215.5 44t171 120t112.5 174t40 209v4q0 111 -40 209.5t-111.5 172t-169 117.5t-214.5 44t-215 -44t-170.5 -120t-112.5 -174t-40 -209v-4zM227 522v4q0 92 32 174t88 142.5t135 96.5t171 36q90 0 169 -35 t137.5 -96.5t91 -144.5t32.5 -177v-4q0 -92 -31.5 -174t-88 -142.5t-135 -96t-171.5 -35.5q-90 0 -168.5 34.5t-137 96t-91.5 144.5t-33 177zM614 1219h86l219 211l-124 61z" />
<glyph unicode="&#xf4;" d="M119 518q0 -111 40 -209t111.5 -172t169 -118t213.5 -44q117 0 215.5 44t171 120t112.5 174t40 209v4q0 111 -40 209.5t-111.5 172t-169 117.5t-214.5 44t-215 -44t-170.5 -120t-112.5 -174t-40 -209v-4zM227 522v4q0 92 32 174t88 142.5t135 96.5t171 36q90 0 169 -35 t137.5 -96.5t91 -144.5t32.5 -177v-4q0 -92 -31.5 -174t-88 -142.5t-135 -96t-171.5 -35.5q-90 0 -168.5 34.5t-137 96t-91.5 144.5t-33 177zM409 1219h92l152 139l152 -139h96l-205 249h-82z" />
<glyph unicode="&#xf5;" d="M119 518q0 -111 40 -209t111.5 -172t169 -118t213.5 -44q117 0 215.5 44t171 120t112.5 174t40 209v4q0 111 -40 209.5t-111.5 172t-169 117.5t-214.5 44t-215 -44t-170.5 -120t-112.5 -174t-40 -209v-4zM227 522v4q0 92 32 174t88 142.5t135 96.5t171 36q90 0 169 -35 t137.5 -96.5t91 -144.5t32.5 -177v-4q0 -92 -31.5 -174t-88 -142.5t-135 -96t-171.5 -35.5q-90 0 -168.5 34.5t-137 96t-91.5 144.5t-33 177zM352 1219l70 -19q23 59 44 81t58 22q27 0 59.5 -13.5t68.5 -29t70.5 -28.5t63.5 -13q61 0 102 39.5t70 150.5l-70 18 q-23 -59 -44 -80.5t-58 -21.5q-27 0 -59.5 13.5t-68.5 28.5t-70.5 28.5t-63.5 13.5q-61 0 -102 -40t-70 -150z" />
<glyph unicode="&#xf6;" d="M119 518q0 -111 40 -209t111.5 -172t169 -118t213.5 -44q117 0 215.5 44t171 120t112.5 174t40 209v4q0 111 -40 209.5t-111.5 172t-169 117.5t-214.5 44t-215 -44t-170.5 -120t-112.5 -174t-40 -209v-4zM227 522v4q0 92 32 174t88 142.5t135 96.5t171 36q90 0 169 -35 t137.5 -96.5t91 -144.5t32.5 -177v-4q0 -92 -31.5 -174t-88 -142.5t-135 -96t-171.5 -35.5q-90 0 -168.5 34.5t-137 96t-91.5 144.5t-33 177zM417 1219h142v163h-142v-163zM751 1219h142v163h-142v-163z" />
<glyph unicode="&#xf8;" d="M88 -10h117l106 108q68 -57 155 -90t187 -33q117 0 215.5 44t171 120t112.5 175t40 210q0 104 -35 197.5t-98 165.5l164 172h-117l-107 -115q-68 59 -154.5 92t-187.5 33q-117 0 -215 -44t-170.5 -120t-112.5 -175t-40 -210q0 -104 34.5 -196.5t96.5 -165.5zM225 524 q0 94 32 177t88 144.5t135 96.5t173 35q84 0 155 -29t128 -80l-614 -637q-47 59 -72 133t-25 160zM375 174l612 639q47 -59 72.5 -133t25.5 -160q0 -96 -31.5 -178t-89 -143.5t-135 -96t-172.5 -34.5q-82 0 -153.5 27.5t-128.5 78.5z" />
<glyph unicode="&#xf9;" horiz-adv-x="1255" d="M170 406q0 -94 27.5 -173t82 -136.5t132 -89.5t176.5 -32q143 0 233 63.5t144 156.5v-195h100v1044h-100v-604q0 -82 -28 -150.5t-77 -117.5t-115.5 -76.5t-142.5 -27.5q-160 0 -246 97t-86 259v620h-100v-638zM373 1422l219 -211h86l-181 272z" />
<glyph unicode="&#xfa;" horiz-adv-x="1255" d="M170 406q0 -94 27.5 -173t82 -136.5t132 -89.5t176.5 -32q143 0 233 63.5t144 156.5v-195h100v1044h-100v-604q0 -82 -28 -150.5t-77 -117.5t-115.5 -76.5t-142.5 -27.5q-160 0 -246 97t-86 259v620h-100v-638zM567 1211h86l219 211l-124 61z" />
<glyph unicode="&#xfb;" horiz-adv-x="1255" d="M170 406q0 -94 27.5 -173t82 -136.5t132 -89.5t176.5 -32q143 0 233 63.5t144 156.5v-195h100v1044h-100v-604q0 -82 -28 -150.5t-77 -117.5t-115.5 -76.5t-142.5 -27.5q-160 0 -246 97t-86 259v620h-100v-638zM385 1219h92l152 139l152 -139h96l-205 249h-82z" />
<glyph unicode="&#xfc;" horiz-adv-x="1255" d="M170 406q0 -94 27.5 -173t82 -136.5t132 -89.5t176.5 -32q143 0 233 63.5t144 156.5v-195h100v1044h-100v-604q0 -82 -28 -150.5t-77 -117.5t-115.5 -76.5t-142.5 -27.5q-160 0 -246 97t-86 259v620h-100v-638zM393 1219h142v163h-142v-163zM727 1219h142v163h-142v-163z " />
<glyph unicode="&#xfd;" horiz-adv-x="1204" d="M80 1044l502 -1038q-29 -68 -57.5 -115t-59.5 -76.5t-65.5 -42t-75.5 -12.5q-59 0 -98.5 9.5t-80.5 29.5l-34 -88q53 -23 100 -34t106 -11q113 0 196 66.5t153 230.5l452 1081h-110l-377 -933l-434 933h-117zM575 1211h86l219 211l-124 61z" />
<glyph unicode="&#xfe;" horiz-adv-x="1351" d="M190 -328h101v553q33 -49 75 -94t94 -80t117.5 -55.5t143.5 -20.5q94 0 185 38t163 109t116 172t44 230t-44 229.5t-116 171t-163 107.5t-185 37q-78 0 -142.5 -21.5t-116.5 -56.5t-95 -82t-76 -98v684h-101v-1823zM285 522q0 100 35.5 183t95 142.5t136.5 92.5t159 33 t156.5 -32t131 -91t89 -142.5t32.5 -187.5q0 -106 -31.5 -189t-87 -140.5t-130 -88t-160.5 -30.5q-82 0 -159 32.5t-136.5 91t-95 141.5t-35.5 185z" />
<glyph unicode="&#xff;" horiz-adv-x="1204" d="M80 1044l502 -1038q-29 -68 -57.5 -115t-59.5 -76.5t-65.5 -42t-75.5 -12.5q-59 0 -98.5 9.5t-80.5 29.5l-34 -88q53 -23 100 -34t106 -11q113 0 196 66.5t153 230.5l452 1081h-110l-377 -933l-434 933h-117zM364 1219h142v163h-142v-163zM698 1219h142v163h-142v-163z " />
<glyph unicode="&#x152;" horiz-adv-x="2359" d="M150 715q0 -152 55 -283t156.5 -227t240.5 -150.5t309 -54.5h1319v98h-893v576h791v98h-791v563h883v99h-1309q-170 0 -309 -55.5t-240.5 -153t-156.5 -228.5t-55 -282zM260 719q0 129 46 241.5t130 195.5t205 131t270 48h320v-1237h-320q-150 0 -270.5 48.5 t-204.5 133.5t-130 197.5t-46 241.5z" />
<glyph unicode="&#x153;" horiz-adv-x="2160" d="M119 520q0 -111 40 -210t111.5 -173t169 -118t211.5 -44q84 0 159 24t137.5 67t109.5 102t78 129q31 -74 78 -134.5t108 -101.5t132 -63.5t146 -22.5q147 0 248 55.5t181 141.5l-70 61q-66 -70 -151 -116.5t-208 -46.5q-76 0 -146.5 27.5t-126.5 80.5t-93 129t-43 174 h866q2 12 2 21v18q0 117 -33.5 217.5t-96 174t-150.5 115.5t-197 42q-154 0 -271.5 -88t-174.5 -231q-31 70 -78 128t-108.5 101t-136.5 66.5t-157 23.5q-115 0 -213 -44t-169.5 -120t-112.5 -175t-41 -210zM227 524q0 94 32 176t88 143.5t135 96.5t171 35q90 0 169 -36 t137.5 -97.5t91 -144.5t32.5 -177t-31.5 -176t-88 -143.5t-135 -96t-171.5 -34.5q-90 0 -168.5 34.5t-137 96t-91.5 144.5t-33 179zM1190 571q6 86 39 161t83 129t117.5 85t145.5 31q90 0 157.5 -34t113.5 -90t72 -129t32 -153h-760z" />
<glyph unicode="&#x178;" horiz-adv-x="1466" d="M66 1434l614 -867v-567h106v569l615 865h-127l-539 -770l-536 770h-133zM495 1557h142v163h-142v-163zM829 1557h142v163h-142v-163z" />
<glyph unicode="&#x2c6;" horiz-adv-x="1024" d="M266 1219h92l152 139l152 -139h96l-205 249h-82z" />
<glyph unicode="&#x2dc;" horiz-adv-x="1024" d="M209 1219l70 -19q23 59 44 81t58 22q27 0 59.5 -13.5t68.5 -29t70.5 -28.5t63.5 -13q61 0 102 39.5t70 150.5l-70 18q-23 -59 -44 -80.5t-58 -21.5q-27 0 -59.5 13.5t-68.5 28.5t-70.5 28.5t-63.5 13.5q-61 0 -102 -40t-70 -150z" />
<glyph unicode="&#x2000;" horiz-adv-x="919" />
<glyph unicode="&#x2001;" horiz-adv-x="1839" />
<glyph unicode="&#x2002;" horiz-adv-x="919" />
<glyph unicode="&#x2003;" horiz-adv-x="1839" />
<glyph unicode="&#x2004;" horiz-adv-x="613" />
<glyph unicode="&#x2005;" horiz-adv-x="459" />
<glyph unicode="&#x2006;" horiz-adv-x="306" />
<glyph unicode="&#x2007;" horiz-adv-x="306" />
<glyph unicode="&#x2008;" horiz-adv-x="229" />
<glyph unicode="&#x2009;" horiz-adv-x="367" />
<glyph unicode="&#x200a;" horiz-adv-x="102" />
<glyph unicode="&#x2010;" horiz-adv-x="835" d="M143 551h549v115h-549v-115z" />
<glyph unicode="&#x2011;" horiz-adv-x="835" d="M143 551h549v115h-549v-115z" />
<glyph unicode="&#x2012;" horiz-adv-x="835" d="M143 551h549v115h-549v-115z" />
<glyph unicode="&#x2013;" horiz-adv-x="1081" d="M143 555h795v107h-795v-107z" />
<glyph unicode="&#x2014;" horiz-adv-x="1839" d="M143 555h1553v107h-1553v-107z" />
<glyph unicode="&#x2018;" horiz-adv-x="471" d="M158 1051h135v174h-55q-4 59 22 96t92 72l-24 51q-92 -35 -131 -90.5t-39 -151.5v-151z" />
<glyph unicode="&#x2019;" horiz-adv-x="471" d="M119 1092l24 -52q92 35 131 90.5t39 151.5v152h-135v-174h55q4 -59 -22 -96t-92 -72z" />
<glyph unicode="&#x201a;" horiz-adv-x="471" d="M109 -168l24 -51q92 35 131 90t39 152v151h-135v-174h55q4 -59 -22 -96t-92 -72z" />
<glyph unicode="&#x201c;" horiz-adv-x="839" d="M158 1051h135v174h-55q-4 59 22 96t92 72l-24 51q-92 -35 -131 -90.5t-39 -151.5v-151zM526 1051h136v174h-56q-4 59 22.5 96t92.5 72l-25 51q-92 -35 -131 -90.5t-39 -151.5v-151z" />
<glyph unicode="&#x201d;" horiz-adv-x="839" d="M119 1092l24 -52q92 35 131 90.5t39 151.5v152h-135v-174h55q4 -59 -22 -96t-92 -72zM487 1092l25 -52q92 35 131 90.5t39 151.5v152h-135v-174h55q4 -59 -22.5 -96t-92.5 -72z" />
<glyph unicode="&#x201e;" horiz-adv-x="839" d="M109 -168l24 -51q92 35 131 90t39 152v151h-135v-174h55q4 -59 -22 -96t-92 -72zM477 -168l25 -51q92 35 131 90t39 152v151h-135v-174h55q4 -59 -22.5 -96t-92.5 -72z" />
<glyph unicode="&#x2022;" horiz-adv-x="962" d="M227 721q0 -53 20.5 -99.5t54.5 -80t80 -54t99 -20.5q51 0 98.5 20.5t81 54t54 80t20.5 99.5q0 51 -20.5 98t-54 81t-81 54.5t-98.5 20.5q-53 0 -99 -20.5t-80 -54.5t-54.5 -81t-20.5 -98z" />
<glyph unicode="&#x2026;" horiz-adv-x="1392" d="M168 0h131v170h-131v-170zM631 0h131v170h-131v-170zM1094 0h131v170h-131v-170z" />
<glyph unicode="&#x202f;" horiz-adv-x="367" />
<glyph unicode="&#x2039;" horiz-adv-x="636" d="M104 514l328 -428l76 49l-281 389l281 385l-76 49l-328 -428v-16z" />
<glyph unicode="&#x203a;" horiz-adv-x="636" d="M129 135l76 -49l327 428v16l-327 428l-76 -49l281 -389z" />
<glyph unicode="&#x205f;" horiz-adv-x="459" />
<glyph unicode="&#x2122;" horiz-adv-x="1413" d="M53 1364h207v-561h72v561h207v70h-486v-70zM682 803h72v504l243 -365h11l243 365v-504h72v631h-74l-245 -375l-246 375h-76v-631z" />
<glyph unicode="&#x25fc;" horiz-adv-x="1044" d="M0 0v1044h1044v-1044h-1044z" />
<glyph unicode="&#xfb01;" horiz-adv-x="1251" d="M100 952h152v-952h100v952h365v92h-365v101q0 264 211 264q41 0 76 -6t80 -21v95q-35 12 -72 18t-84 6q-147 0 -229 -92t-82 -262v-103h-152v-92zM934 1317h125v137h-125v-137zM946 0h101v1044h-101v-1044z" />
<glyph unicode="&#xfb02;" horiz-adv-x="1251" d="M100 952h152v-952h100v952h365v92h-365v101q0 264 211 264q41 0 76 -6t80 -21v95q-35 12 -72 18t-84 6q-147 0 -229 -92t-82 -262v-103h-152v-92zM946 0h101v1495h-101v-1495z" />
</font>
</defs>
</svg>
